<svg width="34" height="46" viewBox="0 0 34 46" fill="none" xmlns="http://www.w3.org/2000/svg">
<g id="Group">
<g id="Group_2">
<g id="Group_3">
<g id="Group_4">
<g id="Group_5">
<path id="Vector" d="M25.792 43.0233C31.9384 38.7614 33.3576 30.8125 33.1431 23.6621C33.1066 22.4666 33.2435 21.2118 32.6777 20.1623C32.1118 19.1128 30.7931 18.3918 29.7208 18.8937C28.831 19.309 28.4431 20.3357 27.9458 21.189C27.2841 22.3206 26.2939 23.256 25.1395 23.8538C24.3774 24.2462 23.4374 24.4835 22.6891 24.0683C21.6624 23.4979 21.5438 22.0742 21.5574 20.8878C21.5803 18.6747 21.5985 16.4616 21.6213 14.2531C21.635 13.0667 21.6396 11.8529 21.2745 10.7258C20.9095 9.59874 20.0973 8.54923 18.9702 8.22982C17.8431 7.9104 16.4422 8.55379 16.2004 9.71737C16.1 10.2011 16.1958 10.703 16.1593 11.1958C16.1228 11.6886 15.8947 12.2316 15.4247 12.3685C14.9501 12.5054 14.4756 12.1678 14.1242 11.821C12.9013 10.6163 12.0754 9.06943 11.3042 7.53167C10.5331 5.99391 9.78471 4.41965 8.67588 3.11005C7.56705 1.80044 6.03386 0.755495 4.33639 0.655107C2.63436 0.55472 0.822825 1.5951 0.384769 3.26519C-0.0532863 4.93527 0.918648 6.6373 1.97728 7.9971C3.54698 10.014 5.40415 11.7981 7.47579 13.2766C7.84996 13.5412 8.25151 13.8333 8.39297 14.2713C8.6485 15.0653 7.89559 15.8456 7.11531 16.1057C6.23007 16.3977 5.27183 16.3019 4.34552 16.4068C3.41922 16.5118 2.41534 16.9179 2.06398 17.7895C1.57573 18.9987 2.58417 20.2763 3.57892 21.1114C5.57299 22.786 7.84996 24.1139 10.2821 25.0128C11.1536 25.3368 12.0708 25.6197 12.7735 26.2357C13.4762 26.8517 13.896 27.9195 13.4671 28.7545C13.0382 29.5896 11.9476 29.8542 11.0304 29.6808C10.1178 29.5074 9.30102 29.0101 8.42947 28.677C6.80045 28.0564 4.69231 28.1613 3.64281 29.5668C2.95378 30.4931 2.8899 31.7799 3.23213 32.8887C3.57436 33.9929 4.27707 34.9466 5.02085 35.8273C7.62637 38.9028 10.962 41.3851 14.7448 42.7084C18.523 44.018 22.0274 44.3831 25.792 43.0233Z" fill="#027A48"/>
</g>
</g>
</g>
</g>
<g id="Group_6">
<g id="Group_7">
<g id="Group_8">
<g id="Group_9">
<g id="Group_10">
<path id="Vector_2" d="M25.3859 45.0356C25.1349 42.202 25.0072 42.1426 23.9622 38.5332C22.9218 34.9193 21.4525 31.0589 19.7824 27.0662C19.3581 26.0715 18.9428 25.0859 18.5322 24.1185C18.1215 23.1511 17.7108 22.1929 17.2499 21.2803C16.3419 19.4505 15.3289 17.7576 14.3159 16.1833C13.3029 14.609 12.2853 13.1489 11.3271 11.7936C10.3642 10.4384 9.43795 9.19267 8.54815 8.09296C6.77311 5.88443 5.13953 4.27824 3.96682 3.2196C3.38274 2.69028 2.91731 2.2933 2.59789 2.02408C2.44275 1.89631 2.32411 1.80048 2.23285 1.72291C2.15071 1.65903 2.10508 1.62253 2.10508 1.62709C2.10052 1.63165 2.14158 1.66816 2.21916 1.74117C2.30586 1.81874 2.4245 1.92369 2.57052 2.05602C2.8808 2.32981 3.33711 2.74048 3.91206 3.27892C5.06195 4.35581 6.67728 5.97569 8.4295 8.18879C9.31018 9.29305 10.2228 10.5388 11.1765 11.8986C12.1302 13.2584 13.1432 14.7186 14.147 16.2928C15.1509 17.8671 16.1548 19.5554 17.0583 21.3761C17.5146 22.2841 17.9161 23.2378 18.3314 24.2052C18.7421 25.1726 19.1573 26.1582 19.5817 27.1529C21.2563 31.1411 22.7256 34.9923 23.7706 38.588C24.8246 42.1837 24.9661 42.2248 25.2308 45.0448" fill="black"/>
</g>
</g>
</g>
</g>
</g>
<g id="Group_11">
<g id="Group_12">
<g id="Group_13">
<g id="Group_14">
<g id="Group_15">
<path id="Vector_3" d="M17.1859 21.2711C17.1996 21.2757 17.2406 21.0932 17.3045 20.7646C17.3684 20.4361 17.446 19.9615 17.5281 19.3683C17.7015 18.1865 17.884 16.5483 18.0757 14.7413C18.2673 12.9344 18.4727 11.3008 18.6643 10.1235C18.7556 9.53488 18.8377 9.06031 18.897 8.73177C18.9563 8.40322 18.9792 8.22071 18.9655 8.21615C18.9518 8.21159 18.897 8.38955 18.8149 8.71352C18.7282 9.0375 18.6278 9.5075 18.5137 10.0961C18.2856 11.2688 18.0529 12.907 17.8612 14.714C17.6741 16.4981 17.5053 18.1135 17.3775 19.3455C17.3136 19.9022 17.2634 20.3722 17.2224 20.7509C17.1859 21.084 17.1722 21.2711 17.1859 21.2711Z" fill="black"/>
</g>
</g>
</g>
</g>
</g>
<g id="Group_16">
<g id="Group_17">
<g id="Group_18">
<g id="Group_19">
<g id="Group_20">
<path id="Vector_4" d="M1.93652 18.3645C1.93652 18.3782 2.15099 18.4055 2.54341 18.4375C2.93584 18.474 3.50166 18.5242 4.19981 18.6063C5.59611 18.7615 7.52173 19.0444 9.62531 19.4505C11.7335 19.8612 13.6226 20.3083 14.9824 20.678C15.6623 20.8559 16.2098 21.0156 16.5886 21.1206C16.9673 21.2301 17.1772 21.2848 17.1818 21.2666C17.1863 21.2529 16.9856 21.1708 16.6114 21.0384C16.2418 20.9061 15.6988 20.7236 15.0189 20.5274C13.6682 20.1212 11.7745 19.6467 9.66181 19.236C7.54911 18.8299 5.61437 18.5698 4.20894 18.4557C3.50622 18.3918 2.93584 18.3645 2.54341 18.3553C2.15555 18.3462 1.93652 18.3508 1.93652 18.3645Z" fill="black"/>
</g>
</g>
</g>
</g>
</g>
<g id="Group_21">
<g id="Group_22">
<g id="Group_23">
<g id="Group_24">
<g id="Group_25">
<path id="Vector_5" d="M23.7752 38.255C23.7844 38.2595 23.8163 38.1956 23.8802 38.0679C23.9532 37.9173 24.0399 37.7348 24.1448 37.5157C24.373 37.0366 24.6787 36.3339 25.0529 35.4624C25.7967 33.7147 26.7458 31.2735 27.7542 28.563C28.7672 25.8525 29.6935 23.4021 30.3963 21.6454C30.7431 20.7921 31.026 20.0894 31.2359 19.5646C31.3271 19.3364 31.4001 19.1494 31.4595 18.9988C31.5096 18.8664 31.5325 18.798 31.5233 18.7934C31.5142 18.7889 31.4823 18.8528 31.4184 18.9805C31.3454 19.1311 31.2587 19.3091 31.1537 19.5327C30.9256 20.0118 30.6198 20.7145 30.2457 21.586C29.5019 23.3337 28.5528 25.7749 27.5398 28.4854C26.5268 31.1959 25.6005 33.6463 24.8977 35.403C24.551 36.2563 24.268 36.959 24.0581 37.4838C23.9669 37.712 23.8939 37.899 23.8345 38.0496C23.7935 38.1819 23.7707 38.2504 23.7752 38.255Z" fill="black"/>
</g>
</g>
</g>
</g>
</g>
<g id="Group_26">
<g id="Group_27">
<g id="Group_28">
<g id="Group_29">
<g id="Group_30">
<path id="Vector_6" d="M3.51978 31.6475C3.51978 31.6566 3.58822 31.684 3.72055 31.7297C3.88026 31.7844 4.07191 31.8483 4.30919 31.9304C4.8522 32.1084 5.58685 32.3502 6.47665 32.6423C8.30645 33.2446 10.8298 34.1024 13.6133 35.0561C16.3968 36.0098 18.9293 36.8449 20.7728 37.4107C21.6945 37.6936 22.4429 37.9126 22.9631 38.0541C23.2049 38.118 23.4011 38.1727 23.5654 38.2138C23.7023 38.2457 23.7753 38.264 23.7798 38.2549C23.7798 38.2457 23.7114 38.2184 23.5791 38.1727C23.4194 38.118 23.2277 38.0541 22.9904 37.9719C22.4474 37.794 21.7128 37.5521 20.823 37.2601C18.9932 36.6578 16.4698 35.7999 13.6863 34.8462C10.9028 33.8926 8.37489 33.0575 6.52685 32.4917C5.6051 32.2088 4.85676 31.9897 4.33657 31.8483C4.09472 31.7844 3.89851 31.7296 3.73424 31.6886C3.59279 31.6521 3.51978 31.6384 3.51978 31.6475Z" fill="black"/>
</g>
</g>
</g>
</g>
</g>
</g>
</svg>
