<svg width="163" height="143" viewBox="0 0 163 143" fill="none" xmlns="http://www.w3.org/2000/svg">
<g id="Group">
<g id="Group_2">
<g id="Group_3">
<g id="Group_4">
<path id="Vector" d="M102.51 46.179C102.51 46.179 109.871 47.4247 110.464 47.5798C111.057 47.7395 113.389 48.8438 113.507 49.5556C113.626 50.2675 113.507 52.3619 113.507 52.3619C113.507 52.3619 113.088 52.7042 112.823 52.0197C112.558 51.3352 112.599 49.98 112.599 49.98L111.294 49.4781L112.006 50.742L112.125 53.7035C112.125 53.7035 111.212 53.6213 111.039 52.9095C110.861 52.2022 110.865 51.4082 110.865 51.4082L109.912 50.6006L110.623 51.5634L110.865 53.6989C110.865 53.6989 110.172 53.9225 109.953 53.4479C109.734 52.9734 109.715 51.5634 109.715 51.5634L107.032 50.628L105.257 51.6181L101.94 49.7427L102.51 46.179Z" fill="#FFBE9D"/>
</g>
</g>
<g id="Group_5">
<g id="Group_6">
<g id="Group_7">
<g id="Group_8">
<path id="Vector_2" d="M76.7423 27.9861C76.7742 28.1321 85.6129 40.2973 85.6129 40.2973L103.363 45.8186L102.556 52.4852L80.7989 48.1047L73.0781 39.2432L76.7423 27.9861Z" fill="#FEC54B"/>
</g>
</g>
<g id="Group_9" opacity="0.2">
<g id="Group_10" opacity="0.2">
<path id="Vector_3" opacity="0.2" d="M76.7423 27.9861C76.7742 28.1321 85.6129 40.2973 85.6129 40.2973L103.363 45.8186L102.556 52.4852L80.7989 48.1047L73.0781 39.2432L76.7423 27.9861Z" fill="black"/>
</g>
</g>
</g>
</g>
</g>
<g id="Group_11">
<g id="Group_12">
<g id="Group_13">
<g id="Group_14">
<g id="Group_15">
<path id="Vector_4" d="M45.8222 51.796H9.55482C8.78822 51.796 8.16309 51.1754 8.16309 50.4043V46.1195C8.16309 45.3529 8.78366 44.7278 9.55482 44.7278H45.8222C46.5888 44.7278 47.2139 45.3484 47.2139 46.1195V50.4043C47.2139 51.1754 46.5933 51.796 45.8222 51.796Z" fill="#F5F5F5"/>
</g>
</g>
<g id="Group_16">
<g id="Group_17">
<g id="Group_18">
<path id="Vector_5" d="M45.8226 51.7963C45.8226 51.7872 45.9002 51.7917 46.0507 51.7643C46.1968 51.7324 46.4249 51.6731 46.6576 51.486C46.8858 51.308 47.1231 50.9932 47.1687 50.5643C47.1869 50.1353 47.1687 49.6243 47.1687 49.0584C47.1641 48.4881 47.1641 47.8583 47.1596 47.1648C47.1596 46.818 47.155 46.4575 47.155 46.0833C47.1459 45.7228 46.9816 45.3578 46.685 45.1068C46.539 44.979 46.361 44.8878 46.1694 44.8376C45.9777 44.7828 45.7724 44.792 45.5534 44.792C45.1199 44.792 44.6773 44.7965 44.2209 44.7965C43.3038 44.8011 42.3364 44.8011 41.3234 44.8056C33.1874 44.8148 21.9577 44.8285 9.55981 44.8422C9.20389 44.8376 8.85253 44.9973 8.61982 45.2574C8.37797 45.5221 8.26389 45.8688 8.28671 46.2385C8.28671 47.0051 8.28671 47.7671 8.28671 48.52C8.28671 48.8987 8.28671 49.2729 8.28671 49.6471V50.2083C8.28671 50.4 8.28671 50.5643 8.33234 50.7331C8.41904 51.0616 8.64719 51.3491 8.94379 51.5134C9.08981 51.5955 9.25408 51.6457 9.42291 51.664C9.58262 51.6776 9.77884 51.6685 9.96136 51.6731C12.8863 51.6776 15.7063 51.6776 18.3939 51.6822C23.7647 51.6913 28.6061 51.7005 32.6764 51.7096C36.7329 51.7233 40.0183 51.737 42.3044 51.7461C43.4315 51.7552 44.3122 51.7643 44.9237 51.7689C45.2157 51.7735 45.4393 51.778 45.6036 51.7826C45.745 51.7872 45.8226 51.7963 45.8226 51.7963C45.8226 51.7963 45.745 51.8054 45.5899 51.81C45.4256 51.8145 45.202 51.8145 44.91 51.8237C44.3031 51.8282 43.4224 51.8373 42.2908 51.8465C40.0092 51.8556 36.7193 51.8693 32.6627 51.883C28.597 51.8921 23.7555 51.8967 18.3802 51.9104C15.6926 51.9104 12.8726 51.9149 9.94768 51.9195C9.76059 51.9149 9.59175 51.9286 9.38641 51.9104C9.1902 51.8875 8.99399 51.8282 8.82059 51.7324C8.46924 51.5407 8.2 51.1985 8.09505 50.8107C8.0403 50.619 8.0403 50.4045 8.0403 50.2266V49.6653C8.0403 49.2912 8.0403 48.9124 8.0403 48.5382C8.0403 47.7808 8.0403 47.0233 8.0403 46.2567C8.01292 45.8643 8.14982 45.4171 8.43273 45.1159C8.71108 44.8056 9.13087 44.6186 9.55068 44.6231C21.9486 44.6368 33.1783 44.6505 41.3143 44.6596C42.3318 44.6642 43.2992 44.6642 44.2118 44.6688C44.6681 44.6688 45.1153 44.6733 45.5442 44.6733C45.7541 44.6733 45.9823 44.6642 46.1922 44.7281C46.4021 44.7874 46.5983 44.8878 46.758 45.0292C47.082 45.3076 47.26 45.7091 47.2645 46.1016C47.2645 46.4757 47.2645 46.8362 47.26 47.183C47.2554 47.872 47.2508 48.5063 47.2508 49.0767C47.2417 49.6471 47.2554 50.1444 47.228 50.5916C47.1687 51.0434 46.9177 51.3628 46.6759 51.5453C46.4295 51.7324 46.1968 51.7826 46.0462 51.81C45.9047 51.81 45.8226 51.7963 45.8226 51.7963Z" fill="black"/>
</g>
</g>
</g>
</g>
<g id="Group_19">
<g id="Group_20">
<g id="Group_21">
<g id="Group_22">
<g id="Group_23">
<g id="Group_24">
<g id="Group_25">
<path id="Vector_6" d="M144.292 142.101C154.584 141.606 162.527 132.862 162.032 122.569C161.538 112.277 152.793 104.334 142.501 104.829C132.208 105.323 124.265 114.068 124.76 124.36C125.255 134.653 133.999 142.595 144.292 142.101Z" fill="black"/>
</g>
</g>
</g>
</g>
</g>
</g>
<g id="Group_26">
<g id="Group_27">
<g id="Group_28">
<g id="Group_29">
<g id="Group_30">
<g id="Group_31">
<path id="Vector_7" d="M124.75 123.163C124.75 123.181 124.746 123.195 124.746 123.213C124.595 133.516 132.827 141.99 143.131 142.136C153.434 142.287 161.908 134.055 162.054 123.751C162.054 123.733 162.054 123.72 162.054 123.701L124.75 123.163Z" fill="black"/>
</g>
</g>
</g>
</g>
</g>
</g>
<g id="Group_32">
<g id="Group_33">
<g id="Group_34">
<g id="Group_35">
<g id="Group_36">
<g id="Group_37">
<path id="Vector_8" d="M130.309 123.291C130.204 130.523 135.985 136.473 143.218 136.578C150.45 136.683 156.4 130.902 156.505 123.669C156.61 116.437 150.829 110.487 143.596 110.382C136.359 110.281 130.414 116.058 130.309 123.291Z" fill="#FAFAFA"/>
</g>
</g>
</g>
</g>
</g>
</g>
<g id="Group_38">
<g id="Group_39">
<g id="Group_40">
<g id="Group_41">
<g id="Group_42">
<g id="Group_43">
<path id="Vector_9" d="M143.592 110.382C136.359 110.277 130.409 116.058 130.304 123.291L156.501 123.669C156.606 116.437 150.829 110.487 143.592 110.382Z" fill="#E0E0E0"/>
</g>
</g>
</g>
</g>
</g>
</g>
<g id="Group_44">
<g id="Group_45">
<g id="Group_46">
<g id="Group_47">
<g id="Group_48">
<g id="Group_49">
<path id="Vector_10" d="M135.428 123.368C135.364 127.776 138.887 131.399 143.29 131.463C147.698 131.527 151.321 128.004 151.385 123.601C151.449 119.193 147.926 115.57 143.523 115.506C139.115 115.438 135.487 118.96 135.428 123.368Z" fill="black"/>
</g>
</g>
</g>
</g>
</g>
</g>
</g>
<g id="Group_50">
<g id="Group_51">
<path id="Vector_11" d="M134.547 96.1221C134.547 96.1221 153.648 90.3453 161.551 111.098L121.578 123.478L134.547 96.1221Z" fill="#FEC54B"/>
</g>
</g>
<g id="Group_52">
<g id="Group_53">
<g id="Group_54">
<g id="Group_55">
<g id="Group_56">
<g id="Group_57">
<g id="Group_58">
<path id="Vector_12" d="M29.1746 142.104C39.467 141.61 47.4096 132.865 46.915 122.573C46.4204 112.28 37.6758 104.338 27.3834 104.832C17.091 105.327 9.14829 114.072 9.64292 124.364C10.1375 134.656 18.8822 142.599 29.1746 142.104Z" fill="black"/>
</g>
</g>
</g>
</g>
</g>
</g>
<g id="Group_59">
<g id="Group_60">
<g id="Group_61">
<g id="Group_62">
<g id="Group_63">
<g id="Group_64">
<path id="Vector_13" d="M9.63209 123.163C9.63209 123.181 9.62752 123.195 9.62752 123.213C9.47694 133.516 17.7087 141.99 28.0122 142.136C38.3156 142.286 46.7892 134.055 46.9352 123.751C46.9352 123.733 46.9352 123.719 46.9352 123.701L9.63209 123.163Z" fill="black"/>
</g>
</g>
</g>
</g>
</g>
</g>
<g id="Group_65">
<g id="Group_66">
<g id="Group_67">
<g id="Group_68">
<g id="Group_69">
<g id="Group_70">
<path id="Vector_14" d="M15.1855 123.291C15.0805 130.523 20.862 136.473 28.0944 136.578C35.3269 136.683 41.2772 130.902 41.3821 123.669C41.4871 116.437 35.7056 110.487 28.4732 110.382C21.2361 110.281 15.2904 116.058 15.1855 123.291Z" fill="#FAFAFA"/>
</g>
</g>
</g>
</g>
</g>
</g>
<g id="Group_71">
<g id="Group_72">
<g id="Group_73">
<g id="Group_74">
<g id="Group_75">
<g id="Group_76">
<path id="Vector_15" d="M28.4732 110.382C21.2407 110.277 15.2905 116.058 15.1855 123.29L41.3822 123.669C41.4871 116.437 35.7057 110.486 28.4732 110.382Z" fill="#E0E0E0"/>
</g>
</g>
</g>
</g>
</g>
</g>
<g id="Group_77">
<g id="Group_78">
<g id="Group_79">
<g id="Group_80">
<g id="Group_81">
<g id="Group_82">
<path id="Vector_16" d="M20.3051 123.368C20.2412 127.776 23.7639 131.399 28.1672 131.463C32.5752 131.527 36.1983 128.004 36.2621 123.601C36.326 119.193 32.8033 115.57 28.3999 115.506C23.992 115.437 20.3689 118.96 20.3051 123.368Z" fill="black"/>
</g>
</g>
</g>
</g>
</g>
</g>
</g>
<g id="Group_83">
<g id="Group_84">
<path id="Vector_17" d="M54.8204 115.99C54.7154 116.045 45.0006 114.489 45.0006 114.489C43.9374 115.876 42.313 116.724 40.5699 116.807C36.3718 117.007 32.2696 117.194 28.715 117.35C25.4022 117.496 22.8332 120.302 22.9701 123.615V123.619C23.1024 126.754 25.6167 129.259 28.7515 129.382L49.4131 130.195C52.8126 130.327 57.3255 128.264 59.4473 125.604L54.8204 115.99Z" fill="black"/>
</g>
</g>
<g id="Group_85">
<g id="Group_86">
<path id="Vector_18" d="M4.06114 107.735C4.06114 107.735 3.17134 89.5513 20.2601 85.764V83.4322H80.1231V88.99C80.1231 88.99 71.3346 99.5718 74.2048 108.356C77.0749 117.144 77.9693 118.039 77.9693 118.039H112.037C112.037 118.039 116.162 112.837 116.34 105.13C116.518 97.4181 113.315 84.2353 110.924 75.8073C108.747 68.1459 107.374 61.7348 107.374 61.7348L117.595 58.3262C117.595 58.3262 136.509 83.0535 137.28 84.4452C138.051 85.837 140.68 89.0813 140.059 96.186C139.443 103.295 122.446 125.235 117.965 127.703C113.484 130.176 109.468 130.332 105.448 130.948C101.962 131.486 76.1669 131.13 69.4227 131.025C67.0772 130.989 64.7638 130.391 62.7606 129.177C60.7437 127.954 59.2242 125.928 57.5495 122.606L53.9949 115.652L4.06114 107.735Z" fill="#FEC54B"/>
</g>
</g>
<g id="Group_87">
<g id="Group_88">
<path id="Vector_19" d="M8.64244 106.471L1.09967 118.28C0.1323 119.791 1.69744 121.694 3.34015 120.982C4.13868 120.635 4.99655 120.097 5.86809 119.266C9.31778 115.985 15.4642 107.343 15.4642 107.343L8.64244 106.471Z" fill="black"/>
</g>
</g>
<g id="Group_89">
<g id="Group_90">
<g id="Group_91">
<path id="Vector_20" d="M62.7106 108.598C62.706 108.598 62.7197 108.538 62.7562 108.424C62.7927 108.301 62.8429 108.137 62.9068 107.927C63.0346 107.489 63.1897 106.836 63.3038 105.978C63.4955 104.276 63.4088 101.68 62.1357 98.8508C61.5151 97.4408 60.5979 95.9989 59.3567 94.6756C58.111 93.3614 56.5733 92.1477 54.7754 91.1803C52.9867 90.2084 50.9607 89.4418 48.7978 88.9535C46.6303 88.4653 44.326 88.2462 41.9669 88.2462C39.6077 88.2462 37.308 88.4561 35.0994 88.7482C32.8909 89.0448 30.7736 89.4098 28.775 89.8661C24.7823 90.7651 21.3098 92.0929 18.6221 93.6215C15.9254 95.141 14.0134 96.802 12.8179 98.0477C12.2156 98.6683 11.7821 99.1839 11.4946 99.5399C11.3577 99.7087 11.2528 99.8456 11.1706 99.946C11.0976 100.037 11.0566 100.083 11.052 100.078C11.052 100.078 11.5631 99.2569 12.7495 97.9838C13.9267 96.7107 15.8341 95.0224 18.5354 93.4755C21.2277 91.9149 24.7184 90.5643 28.7248 89.6517C30.728 89.1908 32.8498 88.8166 35.0675 88.5155C37.2806 88.2189 39.5941 88.0044 41.9669 88.0044C44.3397 88.0044 46.6623 88.228 48.848 88.7208C51.0337 89.2136 53.0734 89.9893 54.8804 90.9795C56.6919 91.9606 58.2479 93.1972 59.5028 94.5342C60.753 95.8803 61.6748 97.345 62.2908 98.7778C63.5548 101.648 63.6186 104.276 63.3951 105.983C63.2673 106.845 63.0985 107.502 62.9524 107.936C62.8794 108.141 62.8201 108.306 62.7791 108.424C62.738 108.543 62.7152 108.598 62.7106 108.598Z" fill="black"/>
</g>
</g>
</g>
<g id="Group_92">
<g id="Group_93">
<g id="Group_94">
<path id="Vector_21" d="M59.2607 104.514C59.2334 104.504 59.3611 104.226 59.4843 103.706C59.6258 103.186 59.6851 102.396 59.5528 101.447C59.4205 100.494 59.0554 99.3938 58.4394 98.2759C58.1382 97.7146 57.7686 97.1579 57.3351 96.6149C56.9108 96.0674 56.4134 95.5472 55.8521 95.0772C54.725 94.1326 53.4748 93.4664 52.2929 92.9964C51.102 92.5355 49.9794 92.2617 49.0258 92.102C48.0721 91.9423 47.2872 91.8739 46.7488 91.8419C46.2058 91.81 45.9092 91.7963 45.9092 91.7781C45.9092 91.7689 45.9822 91.7644 46.1282 91.7553C46.2697 91.7507 46.4841 91.7416 46.7533 91.7461C47.2963 91.7507 48.0858 91.7917 49.0531 91.9332C50.0205 92.0701 51.1613 92.3302 52.3751 92.7865C53.5797 93.2565 54.8574 93.9273 56.0073 94.8901C56.5822 95.3738 57.0887 95.9031 57.5222 96.4643C57.9603 97.0165 58.3344 97.5914 58.6356 98.1664C59.2516 99.3071 59.6075 100.439 59.7216 101.42C59.8357 102.396 59.749 103.204 59.5756 103.724C59.5208 103.993 59.4068 104.181 59.3566 104.317C59.3018 104.45 59.2699 104.518 59.2607 104.514Z" fill="#F5F5F5"/>
</g>
</g>
</g>
<g id="Group_95" opacity="0.4">
<g id="Group_96" opacity="0.4">
<g id="Group_97" opacity="0.4">
<path id="Vector_22" opacity="0.4" d="M47.5386 88.5837C50.8833 89.2226 53.8082 90.4227 56.5507 92.2525C59.2931 94.0823 61.3966 96.6786 62.5876 99.7542C63.7831 102.83 63.6052 106.905 62.3458 109.451L66.5757 109.802C67.9994 105.052 66.448 99.2248 63.0257 95.5059C59.0147 91.1436 53.4934 88.5837 47.5386 88.5837Z" fill="black"/>
</g>
</g>
</g>
<g id="Group_98">
<g id="Group_99">
<path id="Vector_23" d="M46.1923 83.4322H9.19027C7.02738 83.4322 5.27515 81.68 5.27515 79.5171V55.3556C5.27515 53.1927 7.02738 51.4404 9.19027 51.4404H46.1923C48.3552 51.4404 50.1074 53.1927 50.1074 55.3556V79.5171C50.1074 81.68 48.3552 83.4322 46.1923 83.4322Z" fill="black"/>
</g>
</g>
<g id="Group_100">
<g id="Group_101">
<g id="Group_102">
<path id="Vector_24" d="M50.1071 58.5771C50.1071 58.641 40.0273 58.6958 27.5975 58.6958C15.1631 58.6958 5.08325 58.641 5.08325 58.5771C5.08325 58.5133 15.1631 58.4585 27.5975 58.4585C40.0273 58.4585 50.1071 58.5133 50.1071 58.5771Z" fill="black"/>
</g>
</g>
</g>
<g id="Group_103">
<g id="Group_104">
<g id="Group_105">
<path id="Vector_25" d="M80.0957 85.5493C80.0957 85.6132 66.6438 85.6679 50.0479 85.6679C33.4474 85.6679 20 85.6132 20 85.5493C20 85.4854 33.4519 85.4307 50.0479 85.4307C66.6392 85.4307 80.0957 85.4854 80.0957 85.5493Z" fill="black"/>
</g>
</g>
</g>
<g id="Group_106">
<g id="Group_107">
<path id="Vector_26" d="M80.1231 83.432C80.1231 83.432 81.1088 82.2547 81.2046 80.7489C81.3004 79.2431 80.6114 77.3677 78.9961 77.3677H58.3253C54.976 77.3677 52.261 80.0827 52.261 83.432H80.1231Z" fill="black"/>
</g>
</g>
<g id="Group_108">
<g id="Group_109">
<path id="Vector_27" d="M107.378 61.7348L103.783 54.2376C102.801 52.1067 103.582 49.5742 105.599 48.3741L116.349 41.963C116.911 41.6299 117.554 41.4519 118.206 41.4519H120.529L121.46 56.6059L117.878 57.9748L120.146 61.6618L107.378 61.7348Z" fill="#FEC54B"/>
</g>
</g>
<g id="Group_110">
<g id="Group_111">
<path id="Vector_28" d="M120.565 41.9993C120.565 41.9993 124.243 42.8434 124.704 48.5108C125.165 54.1827 121.46 55.944 121.46 55.944L120.565 41.9993Z" fill="#EBEBEB"/>
</g>
</g>
<g id="Group_112">
<g id="Group_113">
<path id="Vector_29" d="M108.633 51.2988C108.633 51.2988 101.2 54.8215 100.292 55.401C99.6619 55.8026 99.1234 56.5053 99.6162 57.7419C100.46 59.85 103.933 57.8651 103.933 57.8651L110.851 54.4063C110.851 54.4063 113.511 53.1514 112.53 51.5772C111.43 49.8204 108.633 51.2988 108.633 51.2988Z" fill="black"/>
</g>
</g>
<g id="Group_114">
<g id="Group_115">
<path id="Vector_30" d="M98.1107 50.0166C98.1107 50.0166 105.092 51.2121 105.685 51.3718C106.279 51.5315 108.61 52.6358 108.729 53.3476C108.848 54.0595 108.729 56.1539 108.729 56.1539C108.729 56.1539 108.309 56.4962 108.045 55.8117C107.78 55.1272 107.821 53.772 107.821 53.772L106.516 53.2701L107.228 54.5341L107.346 57.4955C107.346 57.4955 106.434 57.4134 106.26 56.7015C106.082 55.9942 106.087 55.2003 106.087 55.2003L105.138 54.3926L105.85 55.3554L106.092 57.4909C106.092 57.4909 105.398 57.7145 105.179 57.24C104.96 56.7654 104.942 55.3554 104.942 55.3554L102.259 54.42L100.484 55.4102L97.6909 53.8815L98.1107 50.0166Z" fill="#FFBE9D"/>
</g>
</g>
<g id="Group_116">
<g id="Group_117">
<path id="Vector_31" d="M108.989 40.2882C108.989 43.1173 107.688 45.408 106.087 45.408C104.485 45.408 103.185 43.1173 103.185 40.2882C103.185 37.4591 104.485 35.1685 106.087 35.1685C107.688 35.1685 108.989 37.4637 108.989 40.2882Z" fill="black"/>
</g>
</g>
<g id="Group_118">
<g id="Group_119">
<path id="Vector_32" d="M106.562 43.8064L108.154 49.3323C108.866 48.9718 109.017 48.26 108.898 47.6987C108.497 45.805 108.273 44.4589 107.83 42.798C107.78 42.6383 106.562 43.8064 106.562 43.8064Z" fill="black"/>
</g>
</g>
<g id="Group_120" opacity="0.4">
<g id="Group_121" opacity="0.4">
<path id="Vector_33" opacity="0.4" d="M74.9939 110.719C74.8342 110.263 74.6744 109.798 74.5239 109.319C74.3824 108.871 74.2136 108.41 74.0949 107.968C73.8759 107.174 73.7481 106.357 73.698 105.887C71.0057 116.848 75.1171 124.564 82.1716 125.107C92.4796 125.901 105.051 126.476 110.134 125.143C119.402 122.711 122.801 114.986 123.613 113.708C124.426 112.435 131.795 98.9604 127.278 85.9875C122.76 73.0147 114.884 59.2388 114.884 59.2388L107.378 61.7393C107.378 61.7393 108.751 68.1459 110.928 75.8119C113.319 84.2399 116.522 97.4226 116.344 105.134C116.167 112.846 112.041 118.043 112.041 118.043H77.9736C77.969 118.039 77.2389 117.308 74.9939 110.719Z" fill="black"/>
</g>
</g>
<g id="Group_122">
<g id="Group_123">
<path id="Vector_34" d="M2.70157 104.883L2.94341 102.282L65.129 109.446C68.638 109.857 71.0793 113.138 70.4633 116.619L70.1849 118.194L5.82271 108.839C3.89253 108.561 2.51904 106.822 2.70157 104.883Z" fill="#FEC54B"/>
</g>
</g>
<g id="Group_124" opacity="0.6">
<g id="Group_125" opacity="0.6">
<path id="Vector_35" opacity="0.6" d="M2.70157 104.883L2.94341 102.282L65.129 109.446C68.638 109.857 71.0793 113.138 70.4633 116.619L70.1849 118.194L5.82271 108.839C3.89253 108.561 2.51904 106.822 2.70157 104.883Z" fill="black"/>
</g>
</g>
<g id="Group_126" opacity="0.3">
<g id="Group_127" opacity="0.3">
<g id="Group_128" opacity="0.3">
<path id="Vector_36" opacity="0.3" d="M123.614 122.278C123.614 122.278 137.303 107.22 140.128 95.3829C141.077 95.3738 143.285 95.4696 144.367 95.6978C144.362 95.6978 136.267 117.705 123.614 122.278Z" fill="black"/>
</g>
</g>
</g>
<g id="Group_129">
<g id="Group_130">
<g id="Group_131">
<path id="Vector_37" d="M139.927 90.0806C139.936 90.0806 139.959 90.2083 140 90.4593C140.036 90.7103 140.109 91.0799 140.155 91.559C140.242 92.5172 140.301 93.9318 140.05 95.6475C139.804 97.3632 139.215 99.3619 138.243 101.434C137.294 103.514 135.98 105.663 134.62 107.913C131.878 112.426 128.825 116.113 126.607 118.75C125.494 120.065 124.572 121.114 123.933 121.84C123.623 122.186 123.376 122.46 123.194 122.666C123.021 122.853 122.929 122.948 122.925 122.944C122.92 122.939 122.998 122.834 123.157 122.634C123.331 122.424 123.568 122.136 123.865 121.776C124.499 121.018 125.384 119.95 126.479 118.641C128.665 115.981 131.686 112.28 134.419 107.79C135.784 105.54 137.093 103.405 138.047 101.342C139.023 99.2889 139.621 97.3176 139.886 95.6247C140.159 93.9272 140.128 92.5309 140.064 91.5727C140.032 91.0936 139.972 90.724 139.954 90.4684C139.927 90.2129 139.918 90.0806 139.927 90.0806Z" fill="black"/>
</g>
</g>
</g>
<g id="Group_132">
<g id="Group_133">
<g id="Group_134">
<path id="Vector_38" d="M116.258 122.168C116.212 122.214 115.231 121.329 114.068 120.188C112.904 119.047 111.996 118.084 112.042 118.039C112.087 117.993 113.068 118.878 114.237 120.019C115.4 121.16 116.308 122.123 116.258 122.168Z" fill="black"/>
</g>
</g>
</g>
<g id="Group_135">
<g id="Group_136">
<g id="Group_137">
<path id="Vector_39" d="M75.633 121.707C75.5782 121.68 75.9524 120.763 76.6368 119.759C77.3167 118.75 78.0331 118.061 78.0742 118.107C78.1244 118.153 77.4993 118.901 76.8331 119.896C76.1623 120.881 75.6968 121.735 75.633 121.707Z" fill="black"/>
</g>
</g>
</g>
<g id="Group_138">
<g id="Group_139">
<g id="Group_140">
<path id="Vector_40" d="M49.3313 130.4C49.2766 130.354 50.3124 129.693 51.1976 128.027C51.6403 127.206 52.0007 126.133 52.1148 124.901C52.2289 123.679 52.0509 122.291 51.4486 121.005C50.8235 119.727 49.8607 118.718 48.8385 118.034C47.8118 117.345 46.7532 116.953 45.836 116.779C43.9834 116.419 42.8198 116.811 42.8198 116.738C42.8198 116.729 42.8883 116.711 43.0252 116.679C43.1621 116.651 43.3583 116.588 43.6229 116.565C44.1477 116.483 44.928 116.46 45.868 116.619C46.808 116.775 47.9031 117.162 48.9617 117.856C50.0204 118.545 51.0197 119.581 51.6631 120.904C52.2836 122.237 52.457 123.665 52.3293 124.924C52.2061 126.184 51.8137 127.279 51.3437 128.109C50.8782 128.94 50.3672 129.533 49.9702 129.889C49.7831 130.081 49.6097 130.19 49.5002 130.281C49.3952 130.363 49.3359 130.404 49.3313 130.4Z" fill="black"/>
</g>
</g>
</g>
<g id="Group_141">
<g id="Group_142">
<g id="Group_143">
<path id="Vector_41" d="M26.6208 125.631C26.5569 125.636 26.4565 124.65 26.3972 123.437C26.3379 122.223 26.347 121.237 26.4109 121.233C26.4747 121.228 26.5751 122.209 26.6344 123.428C26.6938 124.641 26.6892 125.631 26.6208 125.631Z" fill="black"/>
</g>
</g>
</g>
<g id="Group_144">
<g id="Group_145">
<g id="Group_146">
<path id="Vector_42" d="M28.2726 125.636C28.2087 125.645 28.0308 124.664 27.8756 123.45C27.7205 122.232 27.6475 121.242 27.7113 121.233C27.7752 121.224 27.9532 122.205 28.1083 123.423C28.2635 124.632 28.3365 125.627 28.2726 125.636Z" fill="black"/>
</g>
</g>
</g>
<g id="Group_147">
<g id="Group_148">
<g id="Group_149">
<path id="Vector_43" d="M53.9176 83.4321C53.9176 83.496 46.3566 83.5508 37.0342 83.5508C27.7073 83.5508 20.1462 83.496 20.1462 83.4321C20.1462 83.3682 27.7073 83.3135 37.0342 83.3135C46.3566 83.3135 53.9176 83.3682 53.9176 83.4321Z" fill="black"/>
</g>
</g>
</g>
<g id="Group_150">
<g id="Group_151">
<g id="Group_152">
<path id="Vector_44" d="M29.4314 83.4092C29.3675 83.4092 29.3127 74.7485 29.3127 64.0709C29.3127 53.3887 29.3675 44.728 29.4314 44.728C29.4953 44.728 29.55 53.3842 29.55 64.0709C29.55 74.7485 29.4998 83.4092 29.4314 83.4092Z" fill="black"/>
</g>
</g>
</g>
<g id="Group_153">
<g id="Group_154">
<g id="Group_155">
<path id="Vector_45" d="M24.8047 83.3773C24.7408 83.3727 25.0648 74.7211 25.5256 64.0481C25.9911 53.3751 26.42 44.7235 26.4839 44.728C26.5478 44.7326 26.2238 53.3842 25.7629 64.0572C25.2975 74.7303 24.8686 83.3819 24.8047 83.3773Z" fill="black"/>
</g>
</g>
</g>
</g>
<g id="Group_156">
<g id="Group_157">
<g id="Group_158">
<g id="Group_159">
<path id="Vector_46" d="M14.3325 136.149C14.3279 136.154 14.2595 136.086 14.1317 135.949C14.0085 135.807 13.8169 135.611 13.5979 135.333C13.1461 134.79 12.5438 133.959 11.9141 132.859C10.6547 130.683 9.40439 127.279 9.41808 123.387C9.43633 119.49 10.714 116.099 11.9916 113.932C12.6305 112.837 13.2419 112.011 13.6937 111.472C13.9127 111.194 14.1089 111.002 14.2321 110.861C14.3599 110.724 14.4283 110.656 14.4329 110.66C14.4375 110.665 14.3827 110.747 14.2686 110.893C14.1591 111.043 13.972 111.244 13.7667 111.527C13.3378 112.084 12.7491 112.919 12.1377 114.014C10.9056 116.186 9.66904 119.54 9.65536 123.387C9.64167 127.229 10.8463 130.596 12.0601 132.777C12.6624 133.877 13.2419 134.717 13.6709 135.278C13.8762 135.565 14.0587 135.771 14.1682 135.917C14.2823 136.063 14.3371 136.14 14.3325 136.149Z" fill="black"/>
</g>
</g>
</g>
</g>
</g>
<g id="Group_160">
<g id="Group_161">
<g id="Group_162">
<g id="Group_163">
<g id="Group_164">
<g id="Group_165">
<g id="Group_166">
<g id="Group_167">
<path id="Vector_47" d="M79.7038 101.383L79.5623 101.652L76.8153 106.822L72.9641 110.532L80.662 120.781L87.0777 119.718C87.0777 119.718 86.3568 118.253 83.1398 117.97L81.9077 111.846L86.4298 104.837" fill="black"/>
</g>
</g>
</g>
<g id="Group_168">
<g id="Group_169">
<g id="Group_170">
<path id="Vector_48" d="M72.9636 110.527L80.657 120.776L87.0727 119.713L86.192 118.869L80.9262 119.444L73.7804 109.738L72.9636 110.527Z" fill="#E0E0E0"/>
</g>
</g>
</g>
</g>
<g id="Group_171">
<g id="Group_172">
<g id="Group_173">
<g id="Group_174">
<path id="Vector_49" d="M82.6236 115.15C82.587 115.223 82.1809 115.077 81.6881 115.173C81.1908 115.255 80.8668 115.538 80.8029 115.478C80.7344 115.442 81.031 114.995 81.6334 114.89C82.2402 114.776 82.6737 115.09 82.6236 115.15Z" fill="black"/>
</g>
</g>
</g>
</g>
<g id="Group_175">
<g id="Group_176">
<g id="Group_177">
<g id="Group_178">
<path id="Vector_50" d="M82.2678 113.64C82.2131 113.694 81.8617 113.366 81.3369 113.352C80.8076 113.334 80.438 113.64 80.3878 113.58C80.3604 113.553 80.4152 113.434 80.5795 113.307C80.7392 113.179 81.0175 113.056 81.3461 113.065C81.6746 113.074 81.9438 113.215 82.0944 113.357C82.245 113.494 82.2952 113.617 82.2678 113.64Z" fill="black"/>
</g>
</g>
</g>
</g>
<g id="Group_179">
<g id="Group_180">
<g id="Group_181">
<g id="Group_182">
<path id="Vector_51" d="M81.9803 111.673C81.9164 111.718 81.6335 111.385 81.1635 111.308C80.6935 111.221 80.3148 111.44 80.2692 111.372C80.2463 111.344 80.3148 111.239 80.4791 111.143C80.6433 111.048 80.9126 110.97 81.2137 111.025C81.5103 111.08 81.7385 111.239 81.8617 111.385C81.9849 111.531 82.0123 111.65 81.9803 111.673Z" fill="black"/>
</g>
</g>
</g>
</g>
<g id="Group_183">
<g id="Group_184">
<g id="Group_185">
<g id="Group_186">
<path id="Vector_52" d="M83.4452 109.866C83.3722 109.907 83.1304 109.569 82.6923 109.378C82.2588 109.172 81.8481 109.213 81.8299 109.136C81.798 109.067 82.2725 108.871 82.811 109.117C83.3494 109.355 83.5228 109.843 83.4452 109.866Z" fill="black"/>
</g>
</g>
</g>
</g>
<g id="Group_187">
<g id="Group_188">
<g id="Group_189">
<g id="Group_190">
<path id="Vector_53" d="M84.0606 108.41C84.0332 108.438 83.7776 108.214 83.3898 107.831C83.1708 107.607 82.9472 107.379 82.719 107.151C82.6004 107.014 82.4498 106.904 82.3357 106.681C82.281 106.567 82.2627 106.425 82.3083 106.284C82.3494 106.138 82.5182 106.019 82.6597 106.019C82.9472 106.015 83.1251 106.133 83.3122 106.229C83.4902 106.339 83.6453 106.471 83.7776 106.608C84.0377 106.891 84.1883 107.206 84.2659 107.479C84.421 108.036 84.2887 108.392 84.2659 108.378C84.2157 108.374 84.2659 108.031 84.0742 107.543C83.9784 107.301 83.8233 107.032 83.586 106.79C83.4673 106.672 83.3259 106.562 83.1708 106.471C83.0202 106.384 82.824 106.293 82.6871 106.302C82.6232 106.311 82.5958 106.334 82.5776 106.38C82.5593 106.43 82.5639 106.503 82.5912 106.562C82.6506 106.695 82.7966 106.831 82.9152 106.968C83.1297 107.215 83.335 107.452 83.5404 107.689C83.8872 108.109 84.0925 108.383 84.0606 108.41Z" fill="black"/>
</g>
</g>
</g>
</g>
<g id="Group_191">
<g id="Group_192">
<g id="Group_193">
<g id="Group_194">
<path id="Vector_54" d="M84.3255 108.561C84.2935 108.565 84.2616 108.223 84.5445 107.781C84.8229 107.361 85.4982 106.845 86.388 107.124C86.4564 107.165 86.5158 107.247 86.5249 107.338C86.534 107.429 86.5112 107.498 86.4793 107.552C86.4199 107.667 86.3424 107.726 86.283 107.794C86.1507 107.922 86.0138 108.036 85.8724 108.127C85.594 108.314 85.3111 108.433 85.0693 108.502C84.581 108.638 84.2616 108.593 84.2662 108.561C84.2616 108.515 84.5673 108.488 85.0054 108.31C85.2244 108.223 85.4754 108.095 85.7218 107.908C85.845 107.817 85.9682 107.712 86.0868 107.594C86.1461 107.53 86.2055 107.47 86.2283 107.42C86.2511 107.361 86.2465 107.375 86.2328 107.361C86.21 107.343 86.1188 107.329 86.0366 107.324C85.9545 107.32 85.8724 107.32 85.7948 107.329C85.6351 107.343 85.4845 107.384 85.343 107.438C85.0647 107.548 84.8548 107.726 84.7088 107.904C84.4167 108.26 84.3711 108.57 84.3255 108.561Z" fill="black"/>
</g>
</g>
</g>
</g>
<g id="Group_195">
<g id="Group_196">
<g id="Group_197">
<path id="Vector_55" d="M78.0467 109.483C78.1152 109.902 77.8323 110.299 77.4125 110.372C76.9926 110.441 76.5957 110.158 76.5227 109.738C76.4542 109.318 76.7371 108.921 77.1569 108.848C77.5767 108.78 77.9737 109.063 78.0467 109.483Z" fill="#E0E0E0"/>
</g>
</g>
</g>
</g>
</g>
<g id="Group_198">
<g id="Group_199">
<g id="Group_200">
<g id="Group_201">
<g id="Group_202">
<path id="Vector_56" d="M103.067 106.311L105.125 119.672L121.762 117.199C121.428 115.624 112.343 113.713 112.343 113.713L111.376 105.097L103.067 106.311Z" fill="black"/>
</g>
</g>
</g>
<g id="Group_203">
<g id="Group_204">
<g id="Group_205">
<g id="Group_206">
<path id="Vector_57" d="M107.096 113.758C106.785 113.895 106.617 114.287 106.74 114.602C106.863 114.917 107.265 115.091 107.575 114.963C107.885 114.83 108.104 114.365 107.944 114.064C107.785 113.767 107.306 113.585 107.036 113.785" fill="#E0E0E0"/>
</g>
</g>
</g>
</g>
<g id="Group_207">
<g id="Group_208">
<g id="Group_209">
<path id="Vector_58" d="M105.124 119.672L104.969 118.317L120.981 116.45C120.981 116.45 121.77 116.66 121.766 117.199L105.124 119.672Z" fill="#E0E0E0"/>
</g>
</g>
</g>
<g id="Group_210">
<g id="Group_211">
<g id="Group_212">
<g id="Group_213">
<path id="Vector_59" d="M112.603 113.589C112.613 113.671 112.211 113.767 111.85 114.091C111.481 114.402 111.326 114.785 111.248 114.762C111.171 114.757 111.221 114.256 111.663 113.872C112.101 113.489 112.608 113.512 112.603 113.589Z" fill="black"/>
</g>
</g>
</g>
</g>
<g id="Group_214">
<g id="Group_215">
<g id="Group_216">
<g id="Group_217">
<path id="Vector_60" d="M114.456 114.05C114.488 114.128 114.155 114.315 113.931 114.703C113.694 115.081 113.68 115.465 113.598 115.469C113.525 115.492 113.397 115.027 113.685 114.552C113.967 114.077 114.442 113.972 114.456 114.05Z" fill="black"/>
</g>
</g>
</g>
</g>
<g id="Group_218">
<g id="Group_219">
<g id="Group_220">
<g id="Group_221">
<path id="Vector_61" d="M115.756 115.989C115.683 116.017 115.51 115.629 115.656 115.154C115.793 114.675 116.153 114.443 116.195 114.506C116.249 114.566 116.039 114.84 115.93 115.237C115.807 115.624 115.839 115.971 115.756 115.989Z" fill="black"/>
</g>
</g>
</g>
</g>
<g id="Group_222">
<g id="Group_223">
<g id="Group_224">
<g id="Group_225">
<path id="Vector_62" d="M112.166 111.65C112.143 111.728 111.755 111.673 111.299 111.773C110.842 111.865 110.509 112.07 110.454 112.006C110.4 111.956 110.701 111.6 111.239 111.49C111.778 111.376 112.193 111.577 112.166 111.65Z" fill="black"/>
</g>
</g>
</g>
</g>
<g id="Group_226">
<g id="Group_227">
<g id="Group_228">
<g id="Group_229">
<path id="Vector_63" d="M111.477 109.733C111.481 109.765 111.171 109.866 110.642 109.852C110.382 109.848 110.067 109.806 109.729 109.715C109.56 109.67 109.387 109.61 109.213 109.533C109.131 109.496 109.031 109.46 108.93 109.373C108.826 109.3 108.743 109.095 108.83 108.949C108.899 108.807 109.04 108.73 109.159 108.711C109.282 108.689 109.382 108.698 109.478 108.707C109.67 108.725 109.852 108.762 110.021 108.807C110.359 108.903 110.646 109.049 110.865 109.195C111.303 109.496 111.481 109.779 111.454 109.797C111.422 109.829 111.194 109.601 110.76 109.368C110.541 109.25 110.267 109.136 109.953 109.058C109.793 109.022 109.629 108.994 109.451 108.981C109.268 108.962 109.118 108.981 109.086 109.067C109.072 109.099 109.072 109.113 109.118 109.159C109.163 109.2 109.241 109.236 109.323 109.273C109.483 109.346 109.647 109.409 109.802 109.46C110.112 109.56 110.404 109.619 110.655 109.647C111.153 109.715 111.468 109.688 111.477 109.733Z" fill="black"/>
</g>
</g>
</g>
</g>
<g id="Group_230">
<g id="Group_231">
<g id="Group_232">
<g id="Group_233">
<path id="Vector_64" d="M111.385 109.866C111.358 109.884 111.153 109.615 111.048 109.095C110.993 108.834 110.975 108.515 111.025 108.164C111.052 107.99 111.093 107.808 111.162 107.625C111.235 107.447 111.321 107.21 111.632 107.123C111.796 107.091 111.951 107.201 112.015 107.306C112.088 107.411 112.111 107.507 112.147 107.598C112.207 107.79 112.229 107.977 112.229 108.159C112.229 108.52 112.129 108.839 112.001 109.072C111.741 109.551 111.417 109.697 111.404 109.674C111.372 109.638 111.632 109.437 111.819 108.985C111.91 108.761 111.978 108.479 111.965 108.164C111.96 108.009 111.933 107.844 111.878 107.685C111.828 107.511 111.737 107.379 111.673 107.406C111.591 107.415 111.467 107.57 111.422 107.721C111.358 107.881 111.312 108.045 111.28 108.205C111.221 108.52 111.216 108.816 111.244 109.058C111.299 109.555 111.431 109.847 111.385 109.866Z" fill="black"/>
</g>
</g>
</g>
</g>
</g>
</g>
<g id="Group_234">
<g id="Group_235">
<path id="Vector_65" d="M89.9747 74.9263L75.7014 106.019L85.1287 111.677L104.855 74.2646" fill="black"/>
</g>
</g>
<g id="Group_236">
<g id="Group_237">
<path id="Vector_66" d="M113.502 112.385L103.263 114.027L97.1345 77.4589L66.8585 79.6537C66.0554 79.7039 65.2478 79.6354 64.472 79.421C55.9665 77.0893 57.1209 66.2519 57.9377 64.5134L99.8313 63.3088C104.376 63.1764 108.291 66.4847 108.921 70.9884L113.502 112.385Z" fill="black"/>
</g>
</g>
<g id="Group_238">
<g id="Group_239">
<g id="Group_240">
<g id="Group_241">
<g id="Group_242">
<g id="Group_243">
<g id="Group_244">
<g id="Group_245">
<g id="Group_246">
<g id="Group_247">
<path id="Vector_67" d="M57.5268 66.2337L57.6774 50.774C57.6774 50.774 55.6833 40.7215 55.0901 36.7699C54.173 30.6325 52.9181 27.7213 62.966 23.359L65.1609 22.5103L68.5603 22.5559C72.6169 22.8616 76.8879 26.5258 76.9838 28.9579L80.8943 63.797L57.5268 66.2337Z" fill="#FEC54B"/>
</g>
</g>
</g>
</g>
</g>
</g>
</g>
</g>
</g>
</g>
<g id="Group_248">
<g id="Group_249">
<g id="Group_250">
<g id="Group_251">
<path id="Vector_68" d="M58.157 26.9546C58.157 26.9546 55.3233 33.06 55.8892 38.6224L66.4618 48.7707C68.8346 51.4081 71.796 52.5306 75.588 52.7588L97.4634 55.1498L98.0702 49.4277L77.2581 43.5323C76.4321 43.3817 76.0169 42.5147 75.3826 41.9626L58.157 26.9546Z" fill="#FEC54B"/>
</g>
</g>
</g>
</g>
<g id="Group_252">
<g id="Group_253">
<g id="Group_254">
<path id="Vector_69" d="M56.45 28.7161C56.45 28.7161 56.5686 28.5837 56.8698 28.4331C57.1709 28.2871 57.6455 28.1365 58.2843 28.0362C58.9186 27.9449 59.7217 27.8764 60.648 28.0407C60.8761 28.0955 61.118 28.1502 61.3416 28.278C61.5606 28.4058 61.7705 28.5563 61.985 28.7161C62.4093 29.0446 62.8337 29.4188 63.2626 29.834C64.1387 30.6508 64.9692 31.6866 65.9412 32.7361C66.9085 33.7902 67.9763 34.9127 69.1353 36.0946C70.2898 37.2764 71.5355 38.513 72.8725 39.7906C73.5432 40.4249 74.2323 41.0729 74.9624 41.7071C75.332 42.0129 75.697 42.3688 76.0484 42.7019C76.4043 43.0304 76.8104 43.3362 77.2758 43.4229H77.2804H77.285C83.4725 45.1705 90.5726 47.1783 98.0972 49.3092L98.193 49.3366L98.1839 49.437C98.1428 49.8431 98.0926 50.2812 98.047 50.7192C97.8873 52.2387 97.7276 53.7445 97.577 55.1591L97.5633 55.2777L97.4446 55.264C94.2642 54.9127 91.1659 54.575 88.1862 54.2465C86.694 54.0822 85.2338 53.9225 83.8056 53.7628C82.3728 53.6168 80.9765 53.4753 79.6121 53.3384C78.2478 53.1878 76.9245 53.0327 75.6423 52.8456C74.36 52.6585 73.1143 52.4212 71.969 51.9923C70.8191 51.5725 69.7924 50.9702 68.8706 50.3314C67.9443 49.688 67.1047 49.0172 66.3153 48.3555C63.1896 45.6861 60.8944 43.3042 59.3019 41.6798C58.5125 40.863 57.9056 40.2196 57.4995 39.7815C57.3033 39.5671 57.1527 39.3982 57.0432 39.2796C56.9428 39.1655 56.8926 39.1016 56.8926 39.1016C56.8926 39.1016 56.9519 39.1518 57.0568 39.2613C57.1709 39.3754 57.3261 39.5397 57.5314 39.7496C57.9558 40.1831 58.5718 40.8128 59.3612 41.6204C60.972 43.2266 63.2855 45.5903 66.4157 48.2369C67.2051 48.8894 68.0493 49.5556 68.971 50.1899C69.8882 50.8242 70.9012 51.4128 72.0329 51.8189C73.1645 52.2387 74.392 52.4669 75.6742 52.6494C76.9519 52.8319 78.2752 52.9871 79.6395 53.1331C81.0039 53.27 82.4002 53.4069 83.833 53.5483C85.2612 53.7035 86.726 53.8632 88.2135 54.0229C91.1932 54.3469 94.2916 54.6845 97.4766 55.0313L97.3443 55.1363C97.4948 53.7217 97.6545 52.2159 97.8142 50.6964C97.8599 50.2583 97.9055 49.8203 97.9512 49.4142L98.0378 49.5419C90.5133 47.4064 83.4177 45.3895 77.2302 43.6328L77.2393 43.6373C76.7009 43.5369 76.272 43.1993 75.9069 42.8616C75.5373 42.5102 75.2042 42.1817 74.8255 41.8668C74.0954 41.228 73.4018 40.5755 72.731 39.9367C71.3986 38.6544 70.1574 37.4087 69.003 36.2223C67.8531 35.0359 66.7899 33.9088 65.8225 32.8456C64.8506 31.787 64.0338 30.7512 63.1714 29.9344C62.747 29.5192 62.3272 29.1404 61.912 28.8164C61.7021 28.6567 61.4967 28.5016 61.2868 28.3784C61.0815 28.2552 60.8442 28.2004 60.6252 28.1457C59.7217 27.9723 58.9186 28.0316 58.2889 28.1092C57.6546 28.1959 57.18 28.3328 56.8789 28.4696C56.5823 28.602 56.4545 28.7252 56.45 28.7161Z" fill="black"/>
</g>
</g>
</g>
</g>
<g id="Group_255">
<g id="Group_256">
<g id="Group_257">
<g id="Group_258">
<g id="Group_259">
<g id="Group_260">
<g id="Group_261">
<g id="Group_262">
<g id="Group_263">
<g id="Group_264">
<g id="Group_265">
<g id="Group_266">
<g id="Group_267">
<g id="Group_268">
<g id="Group_269">
<g id="Group_270">
<g id="Group_271">
<g id="Group_272">
<g id="Group_273">
<path id="Vector_70" d="M61.9071 9.104L62.9703 24.153C63.1437 26.608 65.188 28.5153 67.652 28.5153C70.3625 28.5153 72.5117 26.2201 72.3338 23.5142C72.2379 22.0814 72.1558 20.9087 72.1558 20.9087C72.1558 20.9087 75.7971 20.3429 75.8428 16.7015C75.8701 14.5979 75.5051 9.82496 75.1948 6.16537C74.9849 3.69219 72.9133 1.79395 70.431 1.79395H68.2316C64.4396 2.01754 61.5832 5.32577 61.9071 9.104Z" fill="#FFBE9D"/>
</g>
</g>
</g>
</g>
</g>
</g>
</g>
</g>
</g>
</g>
</g>
<g id="Group_274">
<g id="Group_275">
<g id="Group_276">
<g id="Group_277">
<g id="Group_278">
<g id="Group_279">
<g id="Group_280">
<g id="Group_281">
<g id="Group_282">
<g id="Group_283">
<g id="Group_284">
<path id="Vector_71" d="M72.1608 20.8585C72.1608 20.8585 69.8565 21.0456 67.4106 19.5078C67.4106 19.5078 68.5332 22.1316 72.1699 21.803L72.1608 20.8585Z" fill="#EB996E"/>
</g>
</g>
</g>
</g>
</g>
</g>
</g>
</g>
</g>
</g>
</g>
</g>
</g>
</g>
<g id="Group_285">
<g id="Group_286">
<g id="Group_287">
<g id="Group_288">
<g id="Group_289">
<g id="Group_290">
<g id="Group_291">
<g id="Group_292">
<g id="Group_293">
<g id="Group_294">
<g id="Group_295">
<g id="Group_296">
<g id="Group_297">
<g id="Group_298">
<g id="Group_299">
<g id="Group_300">
<g id="Group_301">
<path id="Vector_72" d="M74.3734 10.8471C74.3825 11.1209 74.159 11.3582 73.8715 11.3718C73.584 11.3855 73.3467 11.1756 73.333 10.9018C73.3239 10.6281 73.5475 10.3908 73.835 10.3771C74.1224 10.3634 74.3643 10.5733 74.3734 10.8471Z" fill="black"/>
</g>
</g>
</g>
</g>
</g>
</g>
</g>
</g>
</g>
</g>
</g>
<g id="Group_302">
<g id="Group_303">
<g id="Group_304">
<g id="Group_305">
<g id="Group_306">
<g id="Group_307">
<g id="Group_308">
<g id="Group_309">
<g id="Group_310">
<g id="Group_311">
<g id="Group_312">
<g id="Group_313">
<path id="Vector_73" d="M74.5652 9.82028C74.5013 9.88872 74.1089 9.59668 73.5476 9.59668C72.9864 9.59212 72.5757 9.87959 72.5164 9.81115C72.4844 9.77921 72.5529 9.66057 72.7308 9.52824C72.9088 9.40047 73.2054 9.27271 73.5568 9.27271C73.9036 9.27271 74.2001 9.40503 74.369 9.5328C74.5378 9.66969 74.5971 9.78833 74.5652 9.82028Z" fill="black"/>
</g>
</g>
</g>
</g>
</g>
</g>
</g>
</g>
</g>
</g>
</g>
</g>
</g>
<g id="Group_314">
<g id="Group_315">
<g id="Group_316">
<g id="Group_317">
<g id="Group_318">
<g id="Group_319">
<g id="Group_320">
<g id="Group_321">
<g id="Group_322">
<g id="Group_323">
<g id="Group_324">
<g id="Group_325">
<path id="Vector_74" d="M69.1171 10.8471C69.1262 11.1209 68.9026 11.3582 68.6151 11.3718C68.3277 11.3855 68.0904 11.1756 68.0767 10.9018C68.0676 10.6281 68.2912 10.3908 68.5786 10.3771C68.8661 10.3634 69.1079 10.5733 69.1171 10.8471Z" fill="black"/>
</g>
</g>
</g>
</g>
</g>
</g>
</g>
</g>
</g>
</g>
</g>
<g id="Group_326">
<g id="Group_327">
<g id="Group_328">
<g id="Group_329">
<g id="Group_330">
<g id="Group_331">
<g id="Group_332">
<g id="Group_333">
<g id="Group_334">
<g id="Group_335">
<g id="Group_336">
<g id="Group_337">
<path id="Vector_75" d="M69.062 9.92525C68.9981 9.9937 68.6011 9.70166 68.0444 9.70166C67.4832 9.6971 67.0725 9.98457 67.0132 9.91613C66.9813 9.88419 67.0497 9.76555 67.2277 9.63322C67.4056 9.50545 67.7022 9.37769 68.0536 9.37769C68.4004 9.37769 68.697 9.51001 68.8658 9.63778C69.0346 9.77011 69.094 9.89331 69.062 9.92525Z" fill="black"/>
</g>
</g>
</g>
</g>
</g>
</g>
</g>
</g>
</g>
</g>
</g>
</g>
</g>
<g id="Group_338">
<g id="Group_339">
<g id="Group_340">
<g id="Group_341">
<g id="Group_342">
<g id="Group_343">
<g id="Group_344">
<g id="Group_345">
<g id="Group_346">
<g id="Group_347">
<g id="Group_348">
<g id="Group_349">
<path id="Vector_76" d="M71.0929 14.0775C71.0883 14.0456 71.4397 13.9863 72.0009 13.9132C72.1424 13.8996 72.2793 13.8722 72.3021 13.7718C72.334 13.6668 72.2747 13.5163 72.2063 13.3474C72.0739 13.0006 71.9325 12.6401 71.7819 12.2569C71.1933 10.7054 70.7689 9.43231 70.8328 9.40949C70.8967 9.38667 71.4214 10.6233 72.01 12.1747C72.1515 12.558 72.2884 12.9231 72.4162 13.2699C72.4709 13.4341 72.5622 13.6166 72.4892 13.8311C72.4527 13.9361 72.3477 14.0136 72.2519 14.041C72.1606 14.0684 72.0785 14.0684 72.01 14.073C71.4488 14.1049 71.0974 14.1095 71.0929 14.0775Z" fill="black"/>
</g>
</g>
</g>
</g>
</g>
</g>
</g>
</g>
</g>
</g>
</g>
</g>
<g id="Group_350">
<g id="Group_351">
<g id="Group_352">
<g id="Group_353">
<g id="Group_354">
<g id="Group_355">
<g id="Group_356">
<g id="Group_357">
<g id="Group_358">
<g id="Group_359">
<g id="Group_360">
<g id="Group_361">
<path id="Vector_77" d="M69.4455 14.4654C69.5368 14.4609 69.5368 15.0678 70.0569 15.5013C70.5771 15.9347 71.2251 15.8663 71.2297 15.9484C71.2388 15.9849 71.0836 16.0671 70.8098 16.0716C70.5406 16.0808 70.1482 15.9941 69.8334 15.7294C69.5139 15.4647 69.3816 15.1134 69.3588 14.8624C69.336 14.6115 69.4044 14.4609 69.4455 14.4654Z" fill="black"/>
</g>
</g>
</g>
</g>
</g>
</g>
</g>
</g>
</g>
</g>
</g>
</g>
</g>
</g>
</g>
<g id="Group_362">
<g id="Group_363">
<g id="Group_364">
<g id="Group_365">
<g id="Group_366">
<g id="Group_367">
<g id="Group_368">
<g id="Group_369">
<g id="Group_370">
<g id="Group_371">
<g id="Group_372">
<path id="Vector_78" d="M69.2083 7.73055C69.1536 7.88113 68.5923 7.81269 67.9352 7.89026C67.2782 7.95414 66.7488 8.15036 66.6621 8.01347C66.6211 7.94958 66.7169 7.80356 66.9314 7.65754C67.1413 7.51152 67.4835 7.37007 67.8759 7.32444C68.2683 7.28337 68.6334 7.34269 68.8707 7.44308C69.1125 7.53891 69.2312 7.65754 69.2083 7.73055Z" fill="black"/>
</g>
</g>
</g>
</g>
</g>
</g>
</g>
</g>
</g>
</g>
</g>
<g id="Group_373">
<g id="Group_374">
<g id="Group_375">
<g id="Group_376">
<g id="Group_377">
<g id="Group_378">
<g id="Group_379">
<g id="Group_380">
<g id="Group_381">
<g id="Group_382">
<g id="Group_383">
<path id="Vector_79" d="M74.3596 8.20053C74.2592 8.32829 73.8759 8.19596 73.4105 8.1914C72.945 8.16859 72.5526 8.2781 72.4659 8.14577C72.4248 8.08189 72.4887 7.95412 72.6576 7.83548C72.8264 7.71684 73.1093 7.61645 73.4287 7.62558C73.7481 7.6347 74.0219 7.74878 74.1862 7.88111C74.3505 8.00888 74.4052 8.13664 74.3596 8.20053Z" fill="black"/>
</g>
</g>
</g>
</g>
</g>
</g>
</g>
</g>
</g>
</g>
</g>
</g>
</g>
<g id="Group_384">
<g id="Group_385">
<g id="Group_386">
<g id="Group_387">
<g id="Group_388">
<g id="Group_389">
<g id="Group_390">
<g id="Group_391">
<g id="Group_392">
<g id="Group_393">
<g id="Group_394">
<g id="Group_395">
<path id="Vector_80" d="M63.1345 11.8419C63.0706 11.8145 60.6294 11.1027 60.7115 13.5941C60.7891 16.0855 63.2759 15.4923 63.2759 15.4193C63.2805 15.3418 63.1345 11.8419 63.1345 11.8419Z" fill="#FFBE9D"/>
</g>
</g>
</g>
</g>
</g>
</g>
</g>
</g>
</g>
</g>
</g>
<g id="Group_396">
<g id="Group_397">
<g id="Group_398">
<g id="Group_399">
<g id="Group_400">
<g id="Group_401">
<g id="Group_402">
<g id="Group_403">
<g id="Group_404">
<g id="Group_405">
<g id="Group_406">
<g id="Group_407">
<path id="Vector_81" d="M62.4864 14.4977C62.4773 14.4886 62.4454 14.5297 62.3724 14.5662C62.3039 14.6027 62.1807 14.6255 62.0484 14.5844C61.7837 14.4977 61.5464 14.087 61.5191 13.6353C61.5054 13.4071 61.5464 13.1927 61.6195 13.0102C61.6879 12.8276 61.802 12.6953 61.9343 12.6679C62.0666 12.6314 62.1625 12.709 62.1944 12.7774C62.2309 12.8459 62.2172 12.8961 62.2309 12.9006C62.24 12.9052 62.2811 12.855 62.2583 12.7546C62.2446 12.7044 62.2172 12.6497 62.1533 12.5995C62.094 12.5538 62.0027 12.531 61.9115 12.5447C61.7198 12.563 61.551 12.7455 61.4689 12.9463C61.3776 13.147 61.3274 13.3889 61.3411 13.6444C61.373 14.1464 61.6468 14.6072 62.0073 14.6985C62.1853 14.7396 62.3267 14.6802 62.3997 14.6209C62.4819 14.557 62.4956 14.5023 62.4864 14.4977Z" fill="#EB996E"/>
</g>
</g>
</g>
</g>
</g>
</g>
</g>
</g>
</g>
</g>
</g>
</g>
</g>
</g>
</g>
<g id="Group_408">
<g id="Group_409">
<g id="Group_410">
<g id="Group_411">
<g id="Group_412">
<g id="Group_413">
<g id="Group_414">
<path id="Vector_82" d="M61.7519 11.7552C62.1306 11.6639 62.7877 12.0153 62.9519 12.3712C63.1162 12.7271 63.1481 13.1287 63.3124 13.4846C63.4721 13.8405 63.8372 14.1645 64.2205 14.0732C64.4806 14.0094 64.6722 13.7675 64.7407 13.5029C64.8091 13.2428 64.7817 12.969 64.7498 12.6998C64.6038 11.5362 64.3574 10.3817 64.3117 9.21357C64.2661 8.04086 64.4304 6.82708 65.0464 5.82777C65.6624 4.82846 66.7895 4.0938 67.9576 4.18962C68.7334 4.25351 69.4406 4.65506 70.2118 4.76457C71.1244 4.89234 72.0872 4.56836 72.7397 3.9204C72.8219 3.83827 73.2143 3.58274 73.2143 3.58274C73.2143 3.52342 73.1595 3.00322 72.9542 2.81158C71.4301 1.40158 68.6786 1.00916 66.6663 1.51566C64.6494 2.02216 62.7603 3.44584 61.8933 5.33496C61.0172 7.21951 61.2727 9.84328 61.7519 11.7552Z" fill="black"/>
</g>
</g>
</g>
</g>
</g>
</g>
</g>
</g>
</g>
<g id="Group_415">
<g id="Group_416">
<g id="Group_417">
<g id="Group_418">
<path id="Vector_83" d="M75.2354 5.60413C75.2354 5.60413 65.6803 2.52862 61.5462 10.7969C61.5462 10.7969 60.9302 8.72984 60.9302 7.62101C60.9302 6.88179 61.3728 2.4693 65.9131 1.08212C65.9085 1.08212 72.7485 -1.52796 75.2354 5.60413Z" fill="#FEC54B"/>
</g>
</g>
</g>
</g>
<g id="Group_419">
<g id="Group_420">
<g id="Group_421">
<g id="Group_422">
<path id="Vector_84" d="M67.0226 5.81418C67.3603 6.36175 67.9626 6.73136 68.6014 6.79068C69.2403 6.85 69.9019 6.5899 70.3308 6.11534C70.5179 6.58534 71.0244 6.90932 71.5309 6.88194C72.0374 6.85456 72.5074 6.48039 72.6443 5.99214C72.9227 6.26136 73.2101 6.53971 73.5752 6.67204C73.9402 6.80437 74.3965 6.75418 74.6384 6.44845C74.8802 6.13816 74.8118 5.66816 74.5745 5.35331C74.3372 5.03846 73.9676 4.85137 73.6071 4.70079C72.4709 4.22623 71.2206 3.98895 70.0023 4.15322C68.784 4.31749 67.6021 4.91069 66.8401 5.8735" fill="black"/>
</g>
</g>
</g>
</g>
<g id="Group_423" opacity="0.4">
<g id="Group_424" opacity="0.4">
<g id="Group_425" opacity="0.4">
<g id="Group_426" opacity="0.4">
<path id="Vector_85" opacity="0.4" d="M75.2354 5.60423C75.2354 5.60423 74.1494 4.30832 72.1964 4.22618C69.3764 4.10298 64.1015 5.68637 61.5462 10.8016C61.5462 10.8016 60.9302 8.7345 60.9302 7.62567C60.9302 6.88645 61.3728 2.47396 65.9131 1.08678C65.9085 1.08222 72.7485 -1.52786 75.2354 5.60423Z" fill="black"/>
</g>
</g>
</g>
</g>
<g id="Group_427">
<g id="Group_428">
<g id="Group_429">
<path id="Vector_86" d="M61.9438 9.82957C63.363 7.66211 65.316 5.86882 67.5108 4.49533C69.7056 3.12185 73.3378 1.76661 75.843 1.1004C76.5959 0.899627 77.3762 0.72623 78.1428 0.85856C78.9094 0.990889 79.6577 1.50195 79.8494 2.25486C80.0866 3.19942 78.412 4.65504 77.6271 5.22542C76.8423 5.79581 75.2361 6.63998 75.2361 6.63998C75.2361 6.63998 75.2589 4.88776 72.4572 4.52727C68.6424 4.04359 61.9438 9.82957 61.9438 9.82957Z" fill="#FEC54B"/>
</g>
</g>
</g>
</g>
<g id="Group_430" opacity="0.3">
<g id="Group_431" opacity="0.3">
<g id="Group_432" opacity="0.3">
<path id="Vector_87" opacity="0.3" d="M58.5811 40.8813C59.5667 43.2587 60.5614 46.1928 61.9897 48.3329C63.4179 50.4729 65.3253 52.3712 67.7026 53.3659C70.6823 54.6116 74.2096 54.817 77.1756 53.5348C77.4174 53.4298 77.892 53.2975 77.8464 53.0374C77.8464 53.0374 76.8653 52.9279 76.5596 52.8777C70.5637 51.8647 69.9157 51.1255 67.0456 48.8576C65.2568 47.4476 61.2915 43.172 58.5811 40.8813Z" fill="black"/>
</g>
</g>
</g>
<g id="Group_433">
<g id="Group_434">
<g id="Group_435">
<path id="Vector_88" d="M77.6319 58.1935C77.6456 58.1981 77.568 58.4034 77.3809 58.7502C77.1984 59.097 76.8836 59.5762 76.4136 60.1009C75.4827 61.1595 73.8309 62.3049 71.7683 62.9391C69.7104 63.5734 67.7574 63.6875 66.3657 63.7468C65.6675 63.7742 65.1017 63.7787 64.7138 63.7787C64.3214 63.7787 64.1069 63.7696 64.1069 63.7514C64.1069 63.7331 64.3214 63.7149 64.7093 63.6875C65.1473 63.6601 65.6995 63.6236 66.3565 63.5825C67.7392 63.4821 69.6739 63.3361 71.6999 62.7156C73.7213 62.0904 75.3504 60.9953 76.2904 59.9868C77.2486 58.983 77.5863 58.1662 77.6319 58.1935Z" fill="black"/>
</g>
</g>
</g>
<g id="Group_436">
<g id="Group_437">
<g id="Group_438">
<path id="Vector_89" d="M103.45 115.118C103.445 115.118 103.432 115.072 103.413 114.977C103.391 114.872 103.363 114.73 103.331 114.557C103.263 114.174 103.162 113.631 103.039 112.937C102.793 111.513 102.437 109.483 102.003 106.978C101.15 101.931 99.9729 94.9812 98.6724 87.3061C98.0929 83.8336 97.5408 80.5071 97.0343 77.4727L97.1529 77.5639C91.8369 77.9518 87.2875 78.2849 84.0523 78.5222C82.4552 78.6317 81.1821 78.7184 80.2923 78.7777C79.868 78.8005 79.5349 78.8233 79.2884 78.837C79.1835 78.8416 79.0968 78.8462 79.0283 78.8462C78.969 78.8462 78.9417 78.8462 78.9417 78.8416C78.9417 78.837 78.969 78.8325 79.0283 78.8233C79.0968 78.8142 79.1835 78.8051 79.2839 78.796C79.5257 78.7732 79.8588 78.7412 80.2832 78.7002C81.173 78.6226 82.4461 78.5176 84.0386 78.3807C87.2693 78.1252 91.8141 77.7602 97.1301 77.3358L97.2305 77.3267L97.2487 77.427C97.7598 80.4569 98.321 83.7834 98.9051 87.2559C100.178 94.9356 101.333 101.89 102.168 106.941C102.574 109.451 102.902 111.486 103.131 112.91C103.235 113.603 103.322 114.146 103.381 114.534C103.404 114.712 103.427 114.849 103.441 114.958C103.45 115.068 103.45 115.118 103.45 115.118Z" fill="black"/>
</g>
</g>
</g>
<g id="Group_439">
<g id="Group_440">
<g id="Group_441">
<path id="Vector_90" d="M100.21 74.2009C100.251 74.2556 99.457 74.9401 98.5489 75.8618C97.6408 76.779 96.9701 77.5912 96.9153 77.5456C96.8651 77.5091 97.4583 76.6239 98.38 75.693C99.3018 74.7621 100.173 74.1507 100.21 74.2009Z" fill="black"/>
</g>
</g>
</g>
</g>
<g id="Group_442">
<g id="Group_443">
<g id="Group_444">
<path id="Vector_91" d="M72.2429 23.8382C72.2521 23.8382 72.2703 23.8884 72.2977 23.9888C72.3296 24.0892 72.357 24.2397 72.3844 24.436C72.43 24.8284 72.4072 25.4216 72.1608 26.0969C71.9144 26.7631 71.4353 27.5115 70.6596 28.0727C69.8884 28.634 68.8206 28.926 67.7301 28.853C66.6349 28.78 65.631 28.3693 64.8873 27.7898C64.1344 27.2149 63.6187 26.5213 63.2719 25.9053C62.9297 25.2801 62.7472 24.7371 62.6559 24.3538C62.6103 24.1622 62.5784 24.0116 62.5647 23.9112C62.551 23.8108 62.5464 23.7561 62.5555 23.7515C62.6057 23.7332 62.7198 24.623 63.4225 25.8231C63.7784 26.4118 64.2941 27.0734 65.0242 27.6164C65.7451 28.164 66.7079 28.5473 67.7529 28.6203C68.7933 28.6887 69.8017 28.415 70.5409 27.8948C71.2847 27.3791 71.7593 26.6719 72.0148 26.0376C72.2658 25.3988 72.3205 24.8284 72.3023 24.4451C72.2749 24.0572 72.2156 23.8473 72.2429 23.8382Z" fill="black"/>
</g>
</g>
</g>
<g id="Group_445">
<g id="Group_446">
<g id="Group_447">
<path id="Vector_92" d="M78.6766 43.7652C78.6583 43.7652 78.6264 43.5963 78.5808 43.2906C78.5306 42.9301 78.4667 42.4966 78.3982 41.9856C78.2477 40.822 78.0515 39.3253 77.837 37.6735C77.6316 35.9851 77.4674 34.4565 77.367 33.3477C77.3168 32.791 77.2803 32.3438 77.262 32.0335C77.2438 31.7232 77.2392 31.5498 77.2575 31.5498C77.2757 31.5498 77.3077 31.7186 77.3533 32.0244C77.4035 32.3849 77.4628 32.8183 77.5313 33.3294C77.6773 34.493 77.8644 35.9897 78.0697 37.6461C78.275 39.3299 78.4576 40.8585 78.5625 41.9673C78.6173 42.524 78.6538 42.9712 78.672 43.2815C78.6903 43.5918 78.6948 43.7652 78.6766 43.7652Z" fill="black"/>
</g>
</g>
</g>
</g>
</svg>
