<svg width="93" height="189" viewBox="0 0 93 189" fill="none" xmlns="http://www.w3.org/2000/svg">
<g id="Group">
<g id="Group_2">
<g id="Group_3">
<g id="Group_4">
<g id="Group_5">
<g id="Group_6">
<g id="Group_7">
<g id="Group_8">
<g id="Group_9">
<g id="Group_10">
<g id="Group_11">
<g id="Group_12">
<path id="Vector" d="M77.8871 188.031H14.3828C6.70768 187.994 0.223547 181.451 0.255489 173.78L0.930822 13.84C0.962764 6.16032 7.21418 -0.0363442 14.8938 0.000160462L78.6902 0.29676C86.3653 0.333265 92.5574 6.58012 92.5209 14.2507L91.8456 174.191C91.8136 181.871 85.5622 188.067 77.8871 188.031Z" fill="black"/>
</g>
</g>
</g>
</g>
</g>
</g>
</g>
</g>
</g>
</g>
</g>
<g id="Group_13">
<g id="Group_14">
<g id="Group_15">
<g id="Group_16">
<g id="Group_17">
<path id="Vector_2" d="M78.599 6.37489L66.2285 6.32013C64.5721 6.31101 63.2169 7.71187 63.2123 9.44584L63.2032 11.6863C63.1941 13.4203 61.8434 14.8211 60.187 14.812L36.0757 14.7025C34.4193 14.6934 33.0778 13.2834 33.0869 11.5494L33.096 9.30439C33.1051 7.57042 31.7636 6.15586 30.1072 6.1513L25.7586 6.13305L14.9304 6.08285C9.5551 6.06004 5.17454 10.3995 5.15172 15.7748L4.49008 171.891C4.46726 177.267 8.80219 181.643 14.1775 181.666L77.8461 181.958C83.2214 181.98 87.602 177.641 87.6248 172.266L88.2864 16.149C88.3093 10.7737 83.9743 6.39771 78.599 6.37489Z" fill="#F5F5F5"/>
</g>
</g>
</g>
</g>
<g id="Group_18">
<g id="Group_19">
<path id="Vector_3" d="M51.576 152.452C51.503 154.337 51.4346 156.107 51.3752 157.577H60.5196L59.4017 151.959L51.576 152.452Z" fill="#F5F5F5"/>
</g>
<g id="Group_20">
<path id="Vector_4" d="M14.4102 154.802L14.4877 157.572H50.4676C50.5269 156.016 50.5954 154.287 50.6638 152.507L14.4102 154.802Z" fill="#F5F5F5"/>
</g>
<g id="Group_21">
<path id="Vector_5" d="M59.8628 151.928L60.9899 157.577H77.8505L77.6497 150.805L59.8628 151.928Z" fill="#F5F5F5"/>
</g>
<g id="Group_22">
<path id="Vector_6" d="M52.4935 72.9909L55.6786 54.5058L47.3281 53.8853V72.9909H52.4935Z" fill="#F5F5F5"/>
</g>
<g id="Group_23">
<path id="Vector_7" d="M13.6573 144.54L4.595 148.09L4.56763 154.51L13.9265 153.917L13.6573 144.54Z" fill="#F5F5F5"/>
</g>
<g id="Group_24">
<path id="Vector_8" d="M13.616 143.098L13.1186 125.882H13.1141V119.808L4.70887 120.698L4.59937 146.621L13.6114 143.089L13.616 143.098Z" fill="#F5F5F5"/>
</g>
<g id="Group_25">
<path id="Vector_9" d="M13.1145 106.256L4.77318 105.156L4.71387 119.324L13.1145 118.435V106.256Z" fill="#F5F5F5"/>
</g>
<g id="Group_26">
<path id="Vector_10" d="M75.2537 120.064L74.9023 125.001L65.0552 126.06L65.8172 129.966L76.9968 129.122L76.8279 123.523L77.7223 119.817L75.2537 120.064Z" fill="#F5F5F5"/>
</g>
<g id="Group_27">
<path id="Vector_11" d="M57.508 130.591L65.361 130.002L63.6499 121.236L56.7961 121.93L57.508 130.591Z" fill="#F5F5F5"/>
</g>
<g id="Group_28">
<path id="Vector_12" d="M57.5813 131.503L58.1836 138.809L59.2468 148.829L59.6849 151.024L77.6223 149.892L77.0246 130.034L57.5813 131.503Z" fill="#F5F5F5"/>
</g>
<g id="Group_29">
<path id="Vector_13" d="M26.7123 97.0019L27.4013 98.1837L13.5706 106.251V125.389L28.1679 124.357L56.3039 121.519L55.2726 108.975L28.3915 105.462L28.5695 104.107L55.1585 107.579L53.4154 86.3471L27.1002 88.8796L27.0135 87.9715L53.3424 85.439L52.4344 74.3599H27.1184L4.8871 78.4073L4.77759 103.778L13.1965 104.887L26.7123 97.0019ZM14.9852 123.564C14.9852 123.564 15.0901 107.784 14.9852 107.191L26.2742 101.186L27.739 122.756L14.9852 123.564Z" fill="#F5F5F5"/>
</g>
<g id="Group_30">
<path id="Vector_14" d="M74.3323 120.159L64.1064 121.191L64.8822 125.161L74.0494 124.175L74.3323 120.159Z" fill="#F5F5F5"/>
</g>
<g id="Group_31">
<path id="Vector_15" d="M51.7086 149.071C51.6767 149.902 51.6447 150.723 51.6128 151.535L59.224 151.052L58.8316 149.09L51.7086 149.071Z" fill="#F5F5F5"/>
</g>
<g id="Group_32">
<path id="Vector_16" d="M35.3131 72.9909L36.6547 66.9129H46.8714V53.8533L14.9208 51.4851V63.7461L4.94131 66.0048L4.89111 77.011L26.9947 72.9909H35.3131Z" fill="#F5F5F5"/>
</g>
<g id="Group_33">
<path id="Vector_17" d="M56.6319 36.6552L56.3581 35.5373L68.5598 30.7095L60.6246 14.7798C60.4831 14.8026 60.3371 14.8163 60.1865 14.8163L46.7026 14.7524L47.0677 37.0476L56.6319 36.6552Z" fill="#F5F5F5"/>
</g>
<g id="Group_34">
<path id="Vector_18" d="M75.1258 28.1085L75.1121 6.3563L66.2324 6.31523C64.576 6.3061 63.2207 7.70697 63.2162 9.44094L63.2025 11.686C63.1979 12.7583 62.6823 13.6983 61.8975 14.2595L69.8372 30.2029L75.1258 28.1085Z" fill="#F5F5F5"/>
</g>
<g id="Group_35">
<path id="Vector_19" d="M29.2582 29.0439L28.2315 6.14184L25.7583 6.12815L16.1074 6.08252L11.9961 26.5662L29.2582 29.0439ZM27.0542 8.45988L27.3828 27.1137L14.556 25.2383L17.3668 8.46445L27.0542 8.45988Z" fill="#F5F5F5"/>
</g>
<g id="Group_36">
<path id="Vector_20" d="M29.7239 29.1123L29.7284 29.3085C29.7513 31.0972 29.7878 34.3142 29.8151 37.7548L46.621 37.0703L46.2559 14.7523L36.0848 14.7066C34.4284 14.6975 33.0869 13.2875 33.096 11.5536L33.1051 9.30853C33.1142 7.57456 31.7727 6.16001 30.1163 6.15544L28.6926 6.15088L29.7239 29.1168V29.1123Z" fill="#F5F5F5"/>
</g>
<g id="Group_37">
<path id="Vector_21" d="M10.6365 26.37L14.7067 6.08716C9.43183 6.18298 5.17448 10.4677 5.15166 15.77L5.1106 25.8818L5.15166 25.5852L10.6365 26.37Z" fill="#F5F5F5"/>
</g>
<g id="Group_38">
<path id="Vector_22" d="M13.5523 51.3848L5.00561 50.7505L4.94629 64.5994L13.5523 62.651V51.3848Z" fill="#F5F5F5"/>
</g>
<g id="Group_39">
<path id="Vector_23" d="M10.5446 26.8172L5.10999 26.0369L5.01416 48.4644L6.18231 48.5511L10.5446 26.8172Z" fill="#F5F5F5"/>
</g>
<g id="Group_40">
<path id="Vector_24" d="M27.8113 142.838L27.9527 124.832L13.5745 125.85L14.081 143.486L27.8113 142.838Z" fill="#F5F5F5"/>
</g>
<g id="Group_41">
<path id="Vector_25" d="M30.4539 138.681L50.8189 148.437C51.0607 142.062 51.2798 136.103 51.257 135.72L51.6996 135.697L51.914 135.268C52.2015 135.414 52.2015 135.414 52.0509 139.758C51.9642 142.181 51.8456 145.407 51.7224 148.638H58.7632L57.7274 138.85L56.3402 121.971L29.7329 124.654L30.4539 138.681Z" fill="#F5F5F5"/>
</g>
<g id="Group_42">
<path id="Vector_26" d="M80.369 108.802L80.1408 106.425L55.7329 108.966L56.7596 121.474L77.8319 119.347L80.369 108.802Z" fill="#F5F5F5"/>
</g>
<g id="Group_43">
<path id="Vector_27" d="M46.872 68.2817H37.755L36.7146 72.9908H46.872V68.2817Z" fill="#F5F5F5"/>
</g>
<g id="Group_44">
<path id="Vector_28" d="M76.6006 69.8698L53.7624 68.291L52.8315 73.6846L53.7944 85.3934L77.8783 83.0754L76.6006 69.8698ZM54.6066 73.6754L55.834 70.2714L75.6697 71.5262L76.8196 81.2684L55.2819 83.8237L54.6066 73.6754Z" fill="#F5F5F5"/>
</g>
<g id="Group_45">
<path id="Vector_29" d="M78.9683 94.3417L77.9689 83.988L53.8713 86.3015L54.7748 97.3259L78.9683 94.3417Z" fill="#F5F5F5"/>
</g>
<g id="Group_46">
<path id="Vector_30" d="M13.9537 154.834L4.60391 155.423L4.56284 154.816L4.55371 157.577H14.0312L13.9537 154.834Z" fill="#F5F5F5"/>
</g>
<g id="Group_47">
<path id="Vector_31" d="M88.1219 22.966L88.2588 23.3128L88.2907 16.1442C88.3135 10.7689 83.9786 6.39751 78.6033 6.37013L75.5688 6.35645L75.5825 27.9261L88.1219 22.966Z" fill="#F5F5F5"/>
</g>
<g id="Group_48">
<path id="Vector_32" d="M50.8006 148.934L30.0158 138.978L29.2811 124.709L28.4096 124.796L28.2636 143.272L14.0952 143.942L14.1089 144.353L14.1135 144.362H14.1089L14.3827 153.89L50.7002 151.595C50.7322 150.709 50.7641 149.82 50.8006 148.934ZM14.985 145.12L34.8161 143.728L47.716 149.715L14.985 151.485V145.12Z" fill="#F5F5F5"/>
</g>
<g id="Group_49">
<path id="Vector_33" d="M82.2129 46.9266L83.0617 41.8844C75.6056 39.2241 75.09 31.4532 75.1128 29.0986L70.2485 31.0243L77.5768 45.7311L82.2129 46.9266Z" fill="#F5F5F5"/>
</g>
<g id="Group_50">
<path id="Vector_34" d="M55.619 107.602L65.7536 106.548L63.755 97.595L54.8889 98.6901L55.619 107.602Z" fill="#F5F5F5"/>
</g>
<g id="Group_51">
<path id="Vector_35" d="M76.6369 54.6565H57.7093L56.1396 54.5378L53.9995 66.9357L76.4681 68.4872L75.9479 63.0982L78.1564 55.1402L76.6369 54.6565Z" fill="#F5F5F5"/>
</g>
<g id="Group_52">
<path id="Vector_36" d="M76.1757 52.375L76.413 46.4567L68.9752 31.5217L57.4397 36.0848L61.405 52.3704H76.1757V52.375ZM68.5234 33.3424L75.3407 46.3107L74.355 50.3535L62.6918 49.9155L59.776 37.6499L68.5234 33.3424Z" fill="#F5F5F5"/>
</g>
<g id="Group_53">
<path id="Vector_37" d="M79.1187 123.76L79.4655 135.382L87.6699 134.921L87.6927 135.377L79.4791 135.838L79.8989 149.747L87.6516 149.254L87.7109 150.166L79.9263 150.659L80.1317 157.577H87.6881L87.8524 118.795L80.1271 119.575L79.1187 123.76Z" fill="#F5F5F5"/>
</g>
<g id="Group_54">
<path id="Vector_38" d="M29.2722 29.5049L11.9051 27.0134L7.56104 48.6515L29.3452 50.2669C29.4364 46.9358 29.3589 36.7145 29.2722 29.5049Z" fill="#F5F5F5"/>
</g>
<g id="Group_55">
<path id="Vector_39" d="M57.8369 52.375H60.4606L56.7417 37.1069L47.0771 37.5039L47.3099 51.5993L57.8369 52.375Z" fill="#F5F5F5"/>
</g>
<g id="Group_56">
<path id="Vector_40" d="M4.50807 168.683L4.49438 171.887C4.49438 171.987 4.50351 172.083 4.50807 172.179V168.683Z" fill="#F5F5F5"/>
</g>
<g id="Group_57">
<path id="Vector_41" d="M29.7917 50.2988L46.8531 51.5628L46.6204 37.5222L29.81 38.2112C29.8465 42.9568 29.8648 48.0219 29.7917 50.2988Z" fill="#F5F5F5"/>
</g>
<g id="Group_58">
<path id="Vector_42" d="M79.1007 95.7061L64.2114 97.5404L66.2101 106.498L80.0088 105.065L79.1007 95.7061Z" fill="#F5F5F5"/>
</g>
<g id="Group_59">
<path id="Vector_43" d="M83.1391 41.4235L84.0927 35.7653L88.2041 36.0847L88.2543 23.8967L75.5735 28.9161C75.3179 37.4901 80.7069 40.5063 83.1391 41.4235Z" fill="#F5F5F5"/>
</g>
<g id="Group_60">
<path id="Vector_44" d="M78.2563 63.3036L78.7765 68.647L88.0624 69.2904L88.108 58.2796L80.3326 55.8247L78.2563 63.3036Z" fill="#F5F5F5"/>
</g>
<g id="Group_61">
<path id="Vector_45" d="M82.6781 108.962L80.2368 119.105L87.8526 118.339L87.8982 107.702C85.5619 107.086 83.5222 106.584 82.4225 106.375L82.6781 108.962Z" fill="#F5F5F5"/>
</g>
<g id="Group_62">
<path id="Vector_46" d="M77.5354 52.5484L88.1217 55.8931L88.1446 49.8744L77.7499 47.1868L77.5354 52.5484Z" fill="#F5F5F5"/>
</g>
<g id="Group_63">
<path id="Vector_47" d="M82.2902 104.978C83.1435 105.106 84.7588 105.448 87.9028 106.279L88.0032 83.0251L80.2368 83.7735L82.2902 104.978Z" fill="#F5F5F5"/>
</g>
<g id="Group_64">
<path id="Vector_48" d="M80.1503 82.8609L88.0079 82.1034L88.0581 70.6638L78.9092 70.0295L80.1503 82.8609Z" fill="#F5F5F5"/>
</g>
<g id="Group_65">
<path id="Vector_49" d="M84.0146 41.7157C85.5022 42.1674 86.8894 42.5188 88.1716 42.7743L88.1944 37.002L84.8497 36.7419L84.0146 41.7157Z" fill="#F5F5F5"/>
</g>
<g id="Group_66">
<path id="Vector_50" d="M83.0981 47.1548L88.1495 48.4599L88.1723 43.2397C86.8672 42.9796 85.4573 42.6237 83.9377 42.1628L83.0981 47.1548Z" fill="#F5F5F5"/>
</g>
<g id="Group_67">
<path id="Vector_51" d="M13.954 154.834L14.0315 157.577H14.4878L14.4103 154.807L50.6639 152.512C50.5955 154.291 50.527 156.021 50.4677 157.577H51.3803C51.4396 156.107 51.5081 154.337 51.5811 152.452L59.4068 151.96L60.5247 157.577H60.9902L59.8631 151.928L77.6454 150.801L77.8507 157.572H80.1323L79.9224 150.655L87.707 150.162L87.6477 149.249L79.895 149.737L79.4752 135.829L87.6887 135.368L87.6613 134.912L79.4615 135.373L79.1147 123.751L80.1231 119.562L87.853 118.781V118.321L80.2372 119.087L82.6785 108.943L82.4275 106.352C83.5226 106.562 85.5623 107.063 87.9032 107.679L87.9078 106.256C84.7638 105.43 83.1485 105.088 82.2952 104.955L80.2418 83.7461L88.0081 82.9978L88.0127 82.0806L80.1551 82.8381L78.9139 70.0067L88.0629 70.641L88.0675 69.2675L78.777 68.6241L78.2614 63.2762L80.3376 55.8018L88.1131 58.2568L88.1222 55.8657L77.5404 52.5256L77.7549 47.1639L88.1496 49.8516L88.1541 48.4416L83.1028 47.1366L83.9424 42.1491C85.4574 42.61 86.8674 42.9659 88.177 43.226V42.756C86.8947 42.5005 85.5076 42.1491 84.02 41.6974L84.8596 36.7236L88.2043 36.9837L88.2089 36.0665L84.0976 35.7471L83.1439 41.4053C80.7118 40.4882 75.3228 37.472 75.5783 28.8934L88.2591 23.874L88.2637 23.2945L88.1268 22.9477L75.5874 27.9078L75.5737 6.33809H75.1174L75.1311 28.0903L69.8471 30.1802L61.9073 14.2368C61.5332 14.506 61.1042 14.684 60.6342 14.7524L68.5694 30.6821L56.3678 35.5098L56.6415 36.6278L47.0773 37.0202L46.7123 14.725H46.256L46.621 37.043L29.8152 37.7275C29.7878 34.2869 29.7513 31.07 29.7285 29.2812L29.724 29.085H29.7194L28.6881 6.11906H28.2318L29.2585 29.0211L11.9964 26.5434L16.1077 6.05974L14.9305 6.05518C14.8574 6.05518 14.7844 6.0643 14.7069 6.0643L10.6366 26.3472L5.15178 25.5578L5.11071 25.8544V26.0095L10.5499 26.7898L6.1876 48.5192L5.01488 48.4325L5.00576 50.7186L13.5524 51.3528V62.6236L4.94644 64.5721L4.94188 65.9775L14.9213 63.7188V51.4578L46.872 53.826V66.8856H36.6553L35.3137 72.9636H26.9952L4.89625 76.9837L4.89169 78.3754L27.123 74.3279H52.4389L53.347 85.4071L27.018 87.9396L27.1047 88.8477L53.42 86.3151L55.1631 107.547L28.5741 104.075L28.3961 105.43L55.2772 108.943L56.3084 121.487L28.1725 124.326L13.5752 125.357V106.219L27.4059 98.1518L26.7169 96.9699L13.201 104.85L4.78217 103.742L4.77761 105.12L13.1143 106.219V118.398L4.71829 119.288L4.71373 120.666L13.1189 119.776V125.85H13.1235L13.6208 143.066L13.6163 143.057L4.60421 146.589L4.59965 148.063L13.6619 144.513L13.9311 153.89L4.57227 154.483V154.789L4.60877 155.396L13.954 154.834ZM51.613 151.535C51.645 150.723 51.6769 149.902 51.7089 149.071L58.8364 149.089L59.2288 151.052L51.613 151.535ZM59.6851 151.024L59.2471 148.829L58.1839 138.809L57.5815 131.503L77.0248 130.039L77.6226 149.893L59.6851 151.024ZM64.1067 121.191L74.3326 120.159L74.0451 124.175L64.8779 125.165L64.1067 121.191ZM63.6504 121.236L65.3616 129.997L57.5085 130.591L56.7967 121.925L63.6504 121.236ZM76.9974 129.121L65.8179 129.966L65.0559 126.06L74.903 124.996L75.2543 120.064L77.7184 119.813L76.8286 123.522L76.9974 129.121ZM63.7554 97.5951L65.754 106.543L55.6194 107.597L54.8893 98.6856L63.7554 97.5951ZM66.2103 106.498L64.2117 97.5403L79.101 95.706L80.0091 105.065L66.2103 106.498ZM76.4681 68.4872L53.9995 66.9312L56.1396 54.5379L57.7093 54.6565L76.6369 54.6611L78.1564 55.1402L75.9434 63.1028L76.4681 68.4872ZM75.1129 29.0942C75.0901 31.4487 75.6057 39.2196 83.0618 41.8799L82.213 46.9221L77.5769 45.722L70.2486 31.0152L75.1129 29.0942ZM68.971 31.5263L76.4088 46.4612L76.1715 52.3795H61.4008L57.4355 36.0939L68.971 31.5263ZM56.7419 37.1069L60.4608 52.375H57.8325L47.31 51.5947L47.0773 37.4993L56.7419 37.1069ZM46.621 37.5222L46.8537 51.5627L29.7924 50.2988C29.8654 48.0218 29.8472 42.9568 29.8152 38.2066L46.621 37.5222ZM11.9051 27.0134L29.2722 29.5048C29.3589 36.7145 29.4365 46.9312 29.3498 50.2623L7.56565 48.6469L11.9051 27.0134ZM55.6787 54.5059L52.4891 72.991H47.3283V53.8853L55.6787 54.5059ZM37.755 68.2819H46.872V72.991H36.7146L37.755 68.2819ZM52.8359 73.6845L53.7668 68.291L76.605 69.8698L77.8827 83.0799L53.7987 85.398L52.8359 73.6845ZM77.9694 83.988L78.9732 94.3462L54.7798 97.3258L53.8763 86.306L77.9694 83.988ZM55.7335 108.966L80.1414 106.429L80.3695 108.802L77.8325 119.347L56.7556 121.474L55.7335 108.966ZM57.7276 138.85L58.7679 148.633H51.7271C51.8503 145.407 51.969 142.181 52.0557 139.753C52.2062 135.409 52.2062 135.409 51.9188 135.263L51.7043 135.692L51.2617 135.715C51.2799 136.094 51.0655 142.058 50.8236 148.432L30.4586 138.676L29.7376 124.654L56.3449 121.971L57.7276 138.85ZM27.9535 124.832L27.812 142.838L14.0863 143.491L13.5798 125.854L27.9535 124.832ZM14.1091 144.362V144.353L14.0954 143.942L28.2638 143.271L28.4098 124.796L29.2813 124.709L30.016 138.978L50.8008 148.934C50.7689 149.82 50.7324 150.709 50.7004 151.595L14.3829 153.89L14.1091 144.362Z" fill="white"/>
</g>
<g id="Group_68">
<path id="Vector_52" d="M34.8158 143.728L14.9846 145.12V151.485L47.7156 149.71L34.8158 143.728Z" fill="#EBEBEB"/>
</g>
<g id="Group_69">
<path id="Vector_53" d="M75.6648 71.5261L55.8291 70.2712L54.6062 73.6753L55.277 83.819L76.8147 81.2637L75.6648 71.5261Z" fill="#EBEBEB"/>
</g>
<g id="Group_70">
<path id="Vector_54" d="M14.182 181.661L77.8506 181.953C83.226 181.976 87.6065 177.636 87.6293 172.261L87.6932 157.572H80.1322H77.8506H60.9901H60.5246H51.3802H50.4676H14.4878H14.0314H4.55393L4.5083 168.679V172.174C4.64063 177.417 8.90711 181.633 14.182 181.661Z" fill="#EBEBEB"/>
</g>
<g id="Group_71">
<path id="Vector_55" d="M27.387 27.1138L27.0539 8.45996H17.3665L14.5557 25.2384L27.387 27.1138Z" fill="#EBEBEB"/>
</g>
<g id="Group_72">
<path id="Vector_56" d="M74.3553 50.3534L75.3409 46.3106L68.5237 33.3423L59.7717 37.6498L62.6921 49.9154L74.3553 50.3534Z" fill="#EBEBEB"/>
</g>
<g id="Group_73">
<path id="Vector_57" d="M14.9846 107.196C15.0896 107.784 14.9846 123.568 14.9846 123.568L27.7339 122.76L26.2691 101.191L14.9846 107.196Z" fill="#EBEBEB"/>
</g>
</g>
<g id="Group_74">
<path id="Vector_58" d="M57.5084 120.009L56.8376 110.23L78.7039 107.419V109.108L76.0619 118.102L57.5084 120.009Z" fill="#EBEBEB"/>
</g>
<g id="Group_75">
<g id="Group_76">
<g id="Group_77">
<g id="Group_78">
<path id="Vector_59" d="M41.3321 38.9095C41.3321 40.3788 40.1412 41.5743 38.6673 41.5743C37.198 41.5743 36.0024 40.3833 36.0024 38.9095C36.0024 37.4402 37.1934 36.2446 38.6673 36.2446C40.1412 36.2446 41.3321 37.4402 41.3321 38.9095Z" fill="#FEC54B"/>
</g>
<g id="Group_79" opacity="0.6">
<path id="Vector_60" opacity="0.6" d="M41.3324 38.7953C41.3963 40.2646 40.2555 41.5058 38.7862 41.5697C37.3169 41.6336 36.0757 40.4928 36.0118 39.0235C35.948 37.5542 37.0887 36.313 38.558 36.2491C40.0273 36.1853 41.2685 37.326 41.3324 38.7953Z" fill="white"/>
</g>
<g id="Group_80">
<path id="Vector_61" d="M38.6718 40.5888C39.6496 40.5888 40.4423 39.7961 40.4423 38.8183C40.4423 37.8405 39.6496 37.0479 38.6718 37.0479C37.694 37.0479 36.9014 37.8405 36.9014 38.8183C36.9014 39.7961 37.694 40.5888 38.6718 40.5888Z" fill="#FEC54B"/>
</g>
<g id="Group_81">
<path id="Vector_62" d="M79.8398 145.298C79.8398 145.927 79.3287 146.434 78.7036 146.434C78.0784 146.434 77.5674 145.923 77.5674 145.298C77.5674 144.668 78.0784 144.161 78.7036 144.161C79.3287 144.161 79.8398 144.668 79.8398 145.298Z" fill="#FEC54B"/>
</g>
<g id="Group_82">
<path id="Vector_63" d="M78.0193 144.928L77.7455 138.549L58.5213 139.484C58.0193 139.512 57.5174 139.402 57.0702 139.174L29.8058 125.403C29.1761 125.083 28.7609 124.449 28.7244 123.742L25.0146 51.7637C24.9964 51.4169 25.1287 51.0838 25.3751 50.842C25.6215 50.6001 25.9637 50.4769 26.306 50.4997L37.992 51.3667V38.5901H39.3609V51.5401C39.3609 51.8732 39.2195 52.1972 38.9776 52.4208C38.7312 52.6489 38.4027 52.763 38.0696 52.7402L26.3927 51.8732L30.0933 123.664C30.1024 123.879 30.2302 124.075 30.4264 124.175L57.6908 137.947C57.9281 138.065 58.1927 138.124 58.462 138.111L77.8459 137.166C78.1745 137.153 78.4802 137.262 78.722 137.481C78.9639 137.7 79.1008 137.997 79.1145 138.325L79.3974 144.864L78.0193 144.928Z" fill="#FEC54B"/>
</g>
</g>
<g id="Group_83">
<path id="Vector_64" d="M27.2419 86.4658C29.1471 86.4658 30.6916 84.9213 30.6916 83.0161C30.6916 81.1109 29.1471 79.5664 27.2419 79.5664C25.3367 79.5664 23.7922 81.1109 23.7922 83.0161C23.7922 84.9213 25.3367 86.4658 27.2419 86.4658Z" fill="#FEC54B"/>
</g>
<g id="Group_84">
<path id="Vector_65" d="M27.2423 85.4118C28.5654 85.4118 29.6379 84.3393 29.6379 83.0162C29.6379 81.6932 28.5654 80.6206 27.2423 80.6206C25.9192 80.6206 24.8467 81.6932 24.8467 83.0162C24.8467 84.3393 25.9192 85.4118 27.2423 85.4118Z" fill="#FAFAFA"/>
<path id="Vector_66" d="M27.2421 85.5853C25.8276 85.5853 24.6731 84.4354 24.6731 83.0163C24.6731 81.6017 25.823 80.4473 27.2421 80.4473C28.6567 80.4473 29.8111 81.5972 29.8111 83.0163C29.8111 84.4354 28.6567 85.5853 27.2421 85.5853ZM27.2421 80.7941C26.0146 80.7941 25.0153 81.7934 25.0153 83.0208C25.0153 84.2483 26.0146 85.2476 27.2421 85.2476C28.4696 85.2476 29.4689 84.2483 29.4689 83.0208C29.4689 81.7888 28.4696 80.7941 27.2421 80.7941Z" fill="#FEC54B"/>
</g>
</g>
<g id="Group_85">
<g id="Group_86">
<g id="Group_87">
<path id="Vector_67" d="M47.5657 68.5469H31.1386C30.3401 68.5469 29.6921 69.1948 29.6921 69.9934V75.9436C29.6921 76.7422 30.3401 77.3901 31.1386 77.3901H31.3303V78.8092L32.973 77.3901H47.5657C48.3643 77.3901 49.0122 76.7422 49.0122 75.9436V69.9934C49.0122 69.1948 48.3643 68.5469 47.5657 68.5469Z" fill="#FEC54B"/>
</g>
</g>
<g id="Group_88" opacity="0.4">
<g id="Group_89" opacity="0.4">
<path id="Vector_68" opacity="0.4" d="M47.5657 68.5469H31.1386C30.3401 68.5469 29.6921 69.1948 29.6921 69.9934V75.9436C29.6921 76.7422 30.3401 77.3901 31.1386 77.3901H31.3303V78.8092L32.973 77.3901H47.5657C48.3643 77.3901 49.0122 76.7422 49.0122 75.9436V69.9934C49.0122 69.1948 48.3643 68.5469 47.5657 68.5469Z" fill="white"/>
</g>
</g>
<g id="Group_90">
<path id="Vector_69" d="M33.3835 72.8722C33.3835 72.3292 33.8034 71.9231 34.3737 71.9231C34.9396 71.9231 35.3594 72.3246 35.3594 72.8722C35.3594 73.4198 34.9396 73.8213 34.3737 73.8213C33.8034 73.8213 33.3835 73.4152 33.3835 72.8722ZM35.0947 72.8722C35.0947 72.4615 34.789 72.1604 34.3737 72.1604C33.9585 72.1604 33.6482 72.4615 33.6482 72.8722C33.6482 73.2829 33.9539 73.5841 34.3737 73.5841C34.7844 73.5886 35.0947 73.2829 35.0947 72.8722Z" fill="white"/>
<path id="Vector_70" d="M37.1843 73.101C37.1843 73.5299 36.8831 73.8219 36.4725 73.8219C36.2671 73.8219 36.0846 73.7444 35.9705 73.5846V73.8082H35.7241V71.8416H35.9797V72.6173C36.0983 72.4667 36.2717 72.3937 36.4725 72.3937C36.8831 72.3846 37.1843 72.6675 37.1843 73.101ZM36.9288 73.101C36.9288 72.7998 36.7234 72.6081 36.4542 72.6081C36.185 72.6081 35.9842 72.7998 35.9842 73.101C35.9842 73.4021 36.1896 73.5983 36.4542 73.5983C36.7234 73.5938 36.9288 73.3976 36.9288 73.101Z" fill="white"/>
<path id="Vector_71" d="M37.0522 74.2462L37.1344 74.05C37.1846 74.091 37.2576 74.1184 37.3397 74.1184C37.4766 74.1184 37.5496 74.0317 37.5496 73.872V72.3981H37.8052V73.8675C37.8052 74.1549 37.6454 74.3329 37.358 74.3329C37.2393 74.3329 37.1253 74.3055 37.0522 74.2462ZM37.504 71.9601C37.504 71.8688 37.577 71.7913 37.6774 71.7913C37.7778 71.7913 37.8508 71.8643 37.8508 71.951C37.8508 72.0468 37.7778 72.1198 37.6774 72.1198C37.5816 72.1244 37.504 72.0559 37.504 71.9601Z" fill="white"/>
<path id="Vector_72" d="M39.5574 73.183H38.4167C38.4486 73.4294 38.6494 73.5937 38.9277 73.5937C39.092 73.5937 39.2289 73.5389 39.3338 73.4248L39.4753 73.5891C39.3475 73.7397 39.1559 73.8173 38.9186 73.8173C38.4669 73.8173 38.1611 73.5161 38.1611 73.0963C38.1611 72.681 38.4623 72.3799 38.8684 72.3799C39.2745 72.3799 39.562 72.6719 39.562 73.1054C39.562 73.1282 39.5574 73.1602 39.5574 73.183ZM38.4167 73.0005H39.3202C39.2928 72.7632 39.1148 72.5989 38.8684 72.5989C38.622 72.5989 38.444 72.7632 38.4167 73.0005Z" fill="white"/>
<path id="Vector_73" d="M39.7856 73.1009C39.7856 72.6811 40.0959 72.3845 40.5294 72.3845C40.7804 72.3845 40.9903 72.4895 41.1044 72.6857L40.9127 72.8089C40.8215 72.672 40.6846 72.6081 40.5294 72.6081C40.2556 72.6081 40.0457 72.7998 40.0457 73.1009C40.0457 73.4066 40.2511 73.5983 40.5294 73.5983C40.6846 73.5983 40.8215 73.5344 40.9127 73.3975L41.1044 73.5207C40.9949 73.7169 40.785 73.8219 40.5294 73.8219C40.0959 73.8173 39.7856 73.5207 39.7856 73.1009Z" fill="white"/>
<path id="Vector_74" d="M42.236 73.7215C42.1585 73.79 42.0444 73.8174 41.9303 73.8174C41.6474 73.8174 41.4831 73.6622 41.4831 73.3793V72.6082H41.2458V72.3983H41.4831V72.0925H41.7387V72.3983H42.1402V72.6082H41.7387V73.3702C41.7387 73.5208 41.8162 73.6075 41.9577 73.6075C42.0307 73.6075 42.1037 73.5847 42.1585 73.539L42.236 73.7215Z" fill="white"/>
<path id="Vector_75" d="M42.5002 71.9601C42.5002 71.8688 42.5732 71.7913 42.6736 71.7913C42.7695 71.7913 42.847 71.8643 42.847 71.951C42.847 72.0468 42.774 72.1198 42.6736 72.1198C42.5732 72.1244 42.5002 72.0559 42.5002 71.9601ZM42.5459 72.3981H42.8014V73.8036H42.5459V72.3981Z" fill="white"/>
<path id="Vector_76" d="M44.5307 72.3982L43.9147 73.8036H43.6546L43.0386 72.3982H43.3032L43.7869 73.5253L44.2797 72.3982H44.5307Z" fill="white"/>
<path id="Vector_77" d="M45.9962 73.183H44.8554C44.8873 73.4294 45.0881 73.5937 45.3665 73.5937C45.5307 73.5937 45.6676 73.5389 45.7726 73.4248L45.914 73.5891C45.7863 73.7397 45.5946 73.8173 45.3573 73.8173C44.9056 73.8173 44.5999 73.5161 44.5999 73.0963C44.5999 72.681 44.901 72.3799 45.3071 72.3799C45.7132 72.3799 46.0007 72.6719 46.0007 73.1054C46.0007 73.1282 45.9962 73.1602 45.9962 73.183ZM44.8554 73.0005H45.7589C45.7315 72.7632 45.5535 72.5989 45.3071 72.5989C45.0607 72.5989 44.8782 72.7632 44.8554 73.0005Z" fill="white"/>
</g>
</g>
<g id="Group_91">
<g id="Group_92">
<path id="Vector_78" d="M42.1404 29.9614C42.1404 27.8578 40.2422 26.2014 38.0656 26.6075C36.6967 26.863 35.6061 27.981 35.3643 29.3545C35.2137 30.2123 35.3916 31.02 35.7841 31.6862L35.7932 31.6999C35.9255 31.9189 36.0898 32.0786 36.2541 32.3114L38.239 34.9397C38.4854 35.2682 38.9782 35.2682 39.2246 34.9397L41.1731 32.357C41.1731 32.357 41.5381 31.9235 41.6704 31.6999L41.6796 31.6908C41.967 31.1797 42.1404 30.5911 42.1404 29.9614ZM38.7227 31.4489C37.8922 31.4489 37.2214 30.7782 37.2214 29.9477C37.2214 29.1172 37.8922 28.4464 38.7227 28.4464C39.5532 28.4464 40.2239 29.1172 40.2239 29.9477C40.2239 30.7782 39.5532 31.4489 38.7227 31.4489Z" fill="#FEC54B"/>
</g>
</g>
</g>
<g id="Group_93">
<g id="Group_94">
<g id="Group_95">
<path id="Vector_79" d="M20.027 164.512H19.3882V164.28H20.9259V164.512H20.2871V166.137H20.0225V164.512H20.027Z" fill="black"/>
</g>
<g id="Group_96">
<path id="Vector_80" d="M20.9031 165.434C20.9031 165.015 21.2134 164.718 21.6332 164.718C22.053 164.718 22.3633 165.015 22.3633 165.434C22.3633 165.854 22.0575 166.155 21.6332 166.155C21.2134 166.155 20.9031 165.854 20.9031 165.434ZM22.1077 165.434C22.1077 165.133 21.907 164.942 21.6377 164.942C21.3685 164.942 21.1632 165.133 21.1632 165.434C21.1632 165.736 21.3685 165.932 21.6377 165.932C21.9024 165.932 22.1077 165.736 22.1077 165.434Z" fill="black"/>
</g>
<g id="Group_97">
<path id="Vector_81" d="M23.5087 166.055C23.4312 166.123 23.3171 166.155 23.203 166.155C22.9201 166.155 22.7558 166 22.7558 165.713V164.942H22.5186V164.732H22.7558V164.426H23.0114V164.732H23.4129V164.942H23.0114V165.704C23.0114 165.854 23.0889 165.941 23.2304 165.941C23.3034 165.941 23.3764 165.918 23.4312 165.873L23.5087 166.055Z" fill="black"/>
</g>
<g id="Group_98">
<path id="Vector_82" d="M24.9275 165.288V166.137H24.6856V165.95C24.599 166.078 24.4438 166.151 24.2248 166.151C23.9054 166.151 23.7046 165.982 23.7046 165.736C23.7046 165.512 23.8506 165.325 24.2704 165.325H24.672V165.275C24.672 165.06 24.5488 164.937 24.2932 164.937C24.1244 164.937 23.9556 164.996 23.846 165.088L23.7411 164.896C23.8871 164.777 24.097 164.713 24.3206 164.713C24.713 164.718 24.9275 164.905 24.9275 165.288ZM24.672 165.708V165.512H24.2795C24.0286 165.512 23.9556 165.608 23.9556 165.731C23.9556 165.872 24.0742 165.959 24.2658 165.959C24.4575 165.959 24.6081 165.872 24.672 165.708Z" fill="black"/>
</g>
<g id="Group_99">
<path id="Vector_83" d="M25.4023 164.17H25.6579V166.137H25.4023V164.17Z" fill="black"/>
</g>
<g id="Group_100">
<path id="Vector_84" d="M28.1809 164.17V166.137H27.9345V165.914C27.8204 166.073 27.6424 166.151 27.4325 166.151C27.0219 166.151 26.7207 165.863 26.7207 165.43C26.7207 165.001 27.0219 164.714 27.4325 164.714C27.6333 164.714 27.8067 164.787 27.9254 164.937V164.161H28.1809V164.17ZM27.9299 165.434C27.9299 165.133 27.7246 164.942 27.4599 164.942C27.1907 164.942 26.9854 165.133 26.9854 165.434C26.9854 165.736 27.1907 165.932 27.4599 165.932C27.7246 165.932 27.9299 165.736 27.9299 165.434Z" fill="black"/>
</g>
<g id="Group_101">
<path id="Vector_85" d="M28.6194 164.298C28.6194 164.207 28.6924 164.129 28.7928 164.129C28.8886 164.129 28.9662 164.202 28.9662 164.294C28.9662 164.389 28.8932 164.463 28.7928 164.463C28.6924 164.463 28.6194 164.389 28.6194 164.298ZM28.665 164.732H28.9205V166.137H28.665V164.732Z" fill="black"/>
</g>
<g id="Group_102">
<path id="Vector_86" d="M29.2263 165.991L29.3313 165.79C29.4499 165.877 29.6416 165.936 29.8241 165.936C30.0614 165.936 30.1572 165.863 30.1572 165.745C30.1572 165.43 29.2674 165.704 29.2674 165.142C29.2674 164.891 29.491 164.723 29.8515 164.723C30.034 164.723 30.2439 164.768 30.3625 164.85L30.253 165.051C30.1252 164.969 29.9838 164.942 29.8469 164.942C29.6233 164.942 29.5138 165.024 29.5138 165.133C29.5138 165.466 30.4036 165.193 30.4036 165.74C30.4036 165.996 30.1709 166.155 29.7967 166.155C29.5731 166.155 29.345 166.082 29.2263 165.991Z" fill="black"/>
</g>
<g id="Group_103">
<path id="Vector_87" d="M31.5263 166.055C31.4487 166.123 31.3347 166.155 31.2206 166.155C30.9377 166.155 30.7734 166 30.7734 165.713V164.942H30.5361V164.732H30.7734V164.426H31.0289V164.732H31.4305V164.942H31.0289V165.704C31.0289 165.854 31.1065 165.941 31.248 165.941C31.321 165.941 31.394 165.918 31.4487 165.873L31.5263 166.055Z" fill="black"/>
</g>
<g id="Group_104">
<path id="Vector_88" d="M32.9446 165.288V166.137H32.7027V165.95C32.616 166.078 32.4609 166.151 32.2419 166.151C31.9225 166.151 31.7217 165.982 31.7217 165.736C31.7217 165.512 31.8677 165.325 32.2875 165.325H32.6891V165.275C32.6891 165.06 32.5659 164.937 32.3103 164.937C32.1415 164.937 31.9727 164.996 31.8631 165.088L31.7582 164.896C31.9042 164.777 32.1141 164.713 32.3377 164.713C32.7256 164.718 32.9446 164.905 32.9446 165.288ZM32.6891 165.708V165.512H32.2966C32.0457 165.512 31.9727 165.608 31.9727 165.731C31.9727 165.872 32.0913 165.959 32.2829 165.959C32.4746 165.959 32.6252 165.872 32.6891 165.708Z" fill="black"/>
</g>
<g id="Group_105">
<path id="Vector_89" d="M34.752 165.329V166.137H34.4965V165.357C34.4965 165.083 34.3596 164.946 34.1177 164.946C33.8485 164.946 33.6706 165.106 33.6706 165.412V166.137H33.415V164.732H33.6614V164.942C33.7664 164.8 33.9444 164.718 34.1679 164.718C34.5102 164.718 34.752 164.914 34.752 165.329Z" fill="black"/>
</g>
<g id="Group_106">
<path id="Vector_90" d="M35.1038 165.434C35.1038 165.015 35.4141 164.718 35.8475 164.718C36.0985 164.718 36.3084 164.823 36.4225 165.019L36.2308 165.142C36.1396 165.005 36.0027 164.942 35.8475 164.942C35.5738 164.942 35.3639 165.133 35.3639 165.434C35.3639 165.74 35.5692 165.932 35.8475 165.932C36.0027 165.932 36.1396 165.868 36.2308 165.731L36.4225 165.854C36.313 166.05 36.1031 166.155 35.8475 166.155C35.4141 166.155 35.1038 165.854 35.1038 165.434Z" fill="black"/>
</g>
<g id="Group_107">
<path id="Vector_91" d="M37.992 165.521H36.8512C36.8832 165.768 37.0839 165.932 37.3623 165.932C37.5266 165.932 37.6635 165.877 37.7684 165.763L37.9099 165.927C37.7821 166.078 37.5905 166.155 37.3532 166.155C36.9014 166.155 36.5957 165.854 36.5957 165.434C36.5957 165.019 36.8969 164.718 37.303 164.718C37.7091 164.718 37.9966 165.01 37.9966 165.444C37.9966 165.466 37.992 165.498 37.992 165.521ZM36.8512 165.339H37.7547C37.7273 165.101 37.5494 164.937 37.303 164.937C37.0566 164.932 36.8786 165.097 36.8512 165.339Z" fill="black"/>
</g>
</g>
<g id="Group_108">
<g id="Group_109">
<path id="Vector_92" d="M21.6924 168.223V172.653H20.6658V169.044H19.7805V168.223H21.6924Z" fill="black"/>
</g>
<g id="Group_110">
<path id="Vector_93" d="M23.6644 172.083C23.6644 172.247 23.637 172.366 23.4956 172.717L23.1351 173.63H22.5099L22.7883 172.626C22.5784 172.544 22.446 172.348 22.446 172.088C22.446 171.723 22.7107 171.481 23.0621 171.481C23.4089 171.476 23.6644 171.723 23.6644 172.083Z" fill="black"/>
</g>
<g id="Group_111">
<path id="Vector_94" d="M25.7313 168.223V172.653H24.7046V169.044H23.8193V168.223H25.7313Z" fill="black"/>
</g>
<g id="Group_112">
<path id="Vector_95" d="M26.5024 170.436C26.5024 168.976 27.3147 168.145 28.4007 168.145C29.4958 168.145 30.2989 168.976 30.2989 170.436C30.2989 171.896 29.4958 172.726 28.4007 172.726C27.3147 172.726 26.5024 171.896 26.5024 170.436ZM29.2677 170.436C29.2677 169.427 28.9117 169.012 28.4007 169.012C27.8942 169.012 27.5383 169.432 27.5383 170.436C27.5383 171.444 27.8942 171.859 28.4007 171.859C28.9163 171.859 29.2677 171.444 29.2677 170.436Z" fill="black"/>
</g>
<g id="Group_113">
<path id="Vector_96" d="M30.801 170.436C30.801 168.976 31.6132 168.145 32.6993 168.145C33.7944 168.145 34.5975 168.976 34.5975 170.436C34.5975 171.896 33.7944 172.726 32.6993 172.726C31.6132 172.726 30.801 171.896 30.801 170.436ZM33.5662 170.436C33.5662 169.427 33.2103 169.012 32.6993 169.012C32.1928 169.012 31.8368 169.432 31.8368 170.436C31.8368 171.444 32.1928 171.859 32.6993 171.859C33.2149 171.859 33.5662 171.444 33.5662 170.436Z" fill="black"/>
</g>
<g id="Group_114">
<path id="Vector_97" d="M42.8516 170.7V172.649H41.866V170.851C41.866 170.299 41.6196 170.048 41.2226 170.048C40.78 170.048 40.4697 170.331 40.4697 170.942V172.653H39.4841V170.856C39.4841 170.303 39.2513 170.052 38.8407 170.052C38.4026 170.052 38.0923 170.335 38.0923 170.947V172.658H37.1067V169.254H38.0512V169.646C38.3022 169.354 38.6855 169.204 39.119 169.204C39.5936 169.204 39.9997 169.386 40.2415 169.76C40.5153 169.414 40.9579 169.204 41.469 169.204C42.2675 169.195 42.8516 169.665 42.8516 170.7Z" fill="black"/>
</g>
</g>
<g id="Group_115">
<g id="Group_116">
<g id="Group_117">
<path id="Vector_98" d="M17.0552 168.748C17.5381 166.695 16.265 164.639 14.2118 164.156C12.1585 163.673 10.1027 164.946 9.61984 167C9.13702 169.053 10.4101 171.109 12.4633 171.592C14.5165 172.074 16.5724 170.801 17.0552 168.748Z" fill="#FEC54B"/>
</g>
</g>
<g id="Group_118">
<g id="Group_119">
<g id="Group_120">
<path id="Vector_99" d="M11.8041 168.569C11.8041 168.547 12.16 168.528 12.7852 168.51C13.4103 168.492 14.3001 168.478 15.3679 168.469L15.2903 168.638C14.9891 168.291 14.6606 167.908 14.3138 167.511L14.2499 167.438L14.3092 167.365C14.615 166.981 14.9389 166.58 15.272 166.16L15.3633 166.352C15.2264 166.352 15.0758 166.352 14.9298 166.352C13.8027 166.347 12.7395 166.343 11.7995 166.338L11.9045 166.233C11.8954 167.392 11.8817 168.369 11.8634 169.053C11.8452 169.738 11.8224 170.135 11.7995 170.135C11.7767 170.135 11.7539 169.738 11.7357 169.053C11.7174 168.369 11.7037 167.392 11.6946 166.233V166.128H11.8041C12.7441 166.124 13.8073 166.119 14.9344 166.115C15.0849 166.115 15.231 166.115 15.3679 166.115H15.6143L15.4591 166.306C15.1215 166.721 14.7975 167.123 14.4872 167.502V167.356C14.8249 167.757 15.1488 168.145 15.4454 168.496L15.5915 168.67H15.3679C14.3001 168.661 13.4057 168.647 12.7852 168.629C12.16 168.615 11.8041 168.592 11.8041 168.569Z" fill="#FAFAFA"/>
</g>
</g>
</g>
</g>
</g>
<g id="Group_121">
<g id="Group_122">
<path id="Vector_100" d="M75.1402 161.355H63.5911C62.3728 161.355 61.3826 162.345 61.3826 163.564V172.653C61.3826 173.872 62.3728 174.862 63.5911 174.862H63.8831V177.029L66.3974 174.862H75.1402C76.3586 174.862 77.3488 173.872 77.3488 172.653V163.564C77.3488 162.345 76.3586 161.355 75.1402 161.355Z" fill="#FEC54B"/>
</g>
<g id="Group_123">
<g id="Group_124">
<g id="Group_125">
<path id="Vector_101" d="M64.6899 165.526V170.189C64.6899 170.289 64.7721 170.372 64.8725 170.372H74.6466C74.747 170.372 74.8291 170.289 74.8291 170.189L74.8063 168.482C74.8063 168.446 74.7926 168.405 74.7698 168.377L73.3689 166.502C73.337 166.456 73.2822 166.429 73.2229 166.429L71.6076 166.415C71.5072 166.415 71.425 166.333 71.425 166.233V165.53C71.425 165.43 71.3429 165.348 71.2425 165.348H64.8679C64.7721 165.343 64.6899 165.425 64.6899 165.526Z" fill="#FAFAFA"/>
</g>
</g>
<g id="Group_126">
<g id="Group_127">
<path id="Vector_102" d="M71.8823 166.822V168.318C71.8823 168.378 71.928 168.423 71.9873 168.423L74.1456 168.387C74.2278 168.387 74.2779 168.291 74.2278 168.222L73.2193 166.735C73.2011 166.707 73.1646 166.689 73.128 166.689L71.9782 166.721C71.928 166.717 71.8823 166.762 71.8823 166.822Z" fill="#FEC54B"/>
</g>
</g>
<g id="Group_128">
<g id="Group_129">
<path id="Vector_103" d="M75.0214 170.513H64.4944V170.837H75.0214V170.513Z" fill="#FAFAFA"/>
</g>
</g>
<g id="Group_130">
<g id="Group_131">
<path id="Vector_104" d="M67.9758 170.636C67.9758 171.211 67.5103 171.676 66.9354 171.676C66.3605 171.676 65.895 171.211 65.895 170.636C65.895 170.061 66.3605 169.596 66.9354 169.596C67.5103 169.596 67.9758 170.061 67.9758 170.636Z" fill="#FEC54B"/>
</g>
</g>
<g id="Group_132">
<g id="Group_133">
<path id="Vector_105" d="M67.5518 170.636C67.5518 170.974 67.278 171.248 66.9403 171.248C66.6026 171.248 66.3289 170.974 66.3289 170.636C66.3289 170.298 66.6026 170.025 66.9403 170.025C67.2734 170.025 67.5518 170.298 67.5518 170.636Z" fill="#FAFAFA"/>
</g>
</g>
<g id="Group_134">
<g id="Group_135">
<g id="Group_136">
<path id="Vector_106" d="M71.4211 170.372C71.3937 170.372 71.3755 169.244 71.3755 167.857C71.3755 166.47 71.3983 165.343 71.4211 165.343C71.4485 165.343 71.4667 166.466 71.4667 167.857C71.4713 169.244 71.4485 170.372 71.4211 170.372Z" fill="#FEC54B"/>
</g>
</g>
</g>
<g id="Group_137">
<g id="Group_138">
<g id="Group_139">
<path id="Vector_107" d="M73.6528 170.636C73.6528 171.211 73.1874 171.676 72.6124 171.676C72.0375 171.676 71.572 171.211 71.572 170.636C71.572 170.061 72.0375 169.596 72.6124 169.596C73.1874 169.596 73.6528 170.061 73.6528 170.636Z" fill="#FEC54B"/>
</g>
</g>
<g id="Group_140">
<g id="Group_141">
<path id="Vector_108" d="M73.2236 170.636C73.2236 170.974 72.9499 171.248 72.6122 171.248C72.2745 171.248 72.0007 170.974 72.0007 170.636C72.0007 170.298 72.2745 170.025 72.6122 170.025C72.9499 170.025 73.2236 170.298 73.2236 170.636Z" fill="#FAFAFA"/>
</g>
</g>
</g>
<g id="Group_142">
<g id="Group_143">
<g id="Group_144">
<path id="Vector_109" d="M72.6123 168.715C72.6123 168.743 72.4617 168.761 72.2792 168.761C72.0966 168.761 71.946 168.738 71.946 168.715C71.946 168.688 72.0966 168.67 72.2792 168.67C72.4662 168.665 72.6123 168.688 72.6123 168.715Z" fill="#FEC54B"/>
</g>
</g>
</g>
</g>
</g>
</g>
</g>
</svg>
