<svg width="24" height="25" viewBox="0 0 24 25" fill="none" xmlns="http://www.w3.org/2000/svg">
<g id="ic_wishlist">
<path id="Vector" d="M20.6603 5.35603C19.6033 4.3029 18.172 3.71158 16.6799 3.71158C15.1878 3.71158 13.7565 4.3029 12.6995 5.35603L11.896 6.15955L11.0925 5.35603C10.0355 4.3029 8.60416 3.71158 7.11206 3.71158C5.61997 3.71158 4.18868 4.3029 3.13166 5.35603C2.07808 6.41431 1.48657 7.84683 1.48657 9.34015C1.48657 10.8335 2.07808 12.266 3.13166 13.3243L11.3677 21.5603C11.4369 21.6301 11.5192 21.6854 11.6099 21.7232C11.7005 21.761 11.7978 21.7804 11.896 21.7804C11.9942 21.7804 12.0914 21.761 12.1821 21.7232C12.2728 21.6854 12.3551 21.6301 12.4242 21.5603L20.6603 13.3243C21.7139 12.266 22.3054 10.8335 22.3054 9.34015C22.3054 7.84683 21.7139 6.41431 20.6603 5.35603Z" fill="#B1B1B1"/>
</g>
</svg>
