<svg width="75" height="62" viewBox="0 0 75 62" fill="none" xmlns="http://www.w3.org/2000/svg">
<g id="item">
<rect id="background" width="74.4" height="62.496" fill="white"/>
<g id="ic_home">
<path id="Vector" d="M48.0524 31.535C47.9966 31.6709 47.9018 31.7872 47.78 31.8693C47.6582 31.9514 47.5148 31.9956 47.3679 31.9963H45.1359V39.4363C45.1359 40.0283 44.9007 40.596 44.4822 41.0146C44.0636 41.4332 43.4959 41.6683 42.9039 41.6683H39.9279C39.7306 41.6683 39.5413 41.5899 39.4018 41.4504C39.2623 41.3109 39.1839 41.1216 39.1839 40.9243V36.4603C39.1839 36.263 39.1055 36.0738 38.966 35.9342C38.8265 35.7947 38.6372 35.7163 38.4399 35.7163H36.9519C36.7546 35.7163 36.5653 35.7947 36.4258 35.9342C36.2863 36.0738 36.2079 36.263 36.2079 36.4603V40.9243C36.2079 41.1216 36.1295 41.3109 35.99 41.4504C35.8505 41.5899 35.6612 41.6683 35.4639 41.6683H32.4879C31.8959 41.6683 31.3282 41.4332 30.9096 41.0146C30.4911 40.596 30.2559 40.0283 30.2559 39.4363V31.9963H28.0239C27.877 31.9956 27.7336 31.9514 27.6118 31.8693C27.49 31.7872 27.3952 31.6709 27.3394 31.535C27.2824 31.3995 27.2669 31.2502 27.2947 31.1059C27.3225 30.9616 27.3924 30.8287 27.4957 30.7241L37.1677 21.0521C37.2368 20.9823 37.3191 20.927 37.4098 20.8892C37.5004 20.8514 37.5977 20.832 37.6959 20.832C37.7941 20.832 37.8914 20.8514 37.982 20.8892C38.0727 20.927 38.155 20.9823 38.2241 21.0521L47.8961 30.7241C47.9994 30.8287 48.0693 30.9616 48.0971 31.1059C48.1249 31.2502 48.1094 31.3995 48.0524 31.535Z" fill="#B1B1B1"/>
</g>
</g>
</svg>
