<svg width="24" height="25" viewBox="0 0 24 25" fill="none" xmlns="http://www.w3.org/2000/svg">
<g id="transfer 1" clip-path="url(#clip0_22_244)">
<path id="Vector" d="M23.5641 7.40901L19.5356 11.4375C19.245 11.7281 18.8642 11.8734 18.4834 11.8734C18.1025 11.8734 17.7217 11.7281 17.4312 11.4375C16.8501 10.8564 16.8501 9.91429 17.4312 9.33318L18.9195 7.84485H3.31902C2.49723 7.84485 1.83102 7.17864 1.83102 6.35685C1.83102 5.53506 2.49723 4.86885 3.31902 4.86885H18.9195L17.4312 3.38052C16.8501 2.79941 16.8501 1.85728 17.4312 1.27617C18.0123 0.695054 18.9544 0.695054 19.5356 1.27617L23.5641 5.30469C24.1452 5.88576 24.1452 6.82794 23.5641 7.40901ZM20.059 17.6438H5.27225L6.76062 16.1555C7.34169 15.5744 7.34169 14.6322 6.76062 14.0511C6.17947 13.47 5.23738 13.47 4.65622 14.0511L0.627693 18.0796C0.0466285 18.6608 0.0466285 19.6029 0.627693 20.184L4.65622 24.2125C4.9468 24.5031 5.32759 24.6484 5.70842 24.6484C6.08926 24.6484 6.47005 24.5031 6.76062 24.2125C7.34169 23.6314 7.34169 22.6893 6.76062 22.1082L5.27225 20.6198H20.059C20.8808 20.6198 21.547 19.9536 21.547 19.1318C21.547 18.3101 20.8808 17.6438 20.059 17.6438Z" fill="#B1B1B1"/>
</g>
<defs>
<clipPath id="clip0_22_244">
<rect width="23.808" height="23.808" fill="white" transform="translate(0.191895 0.840088)"/>
</clipPath>
</defs>
</svg>
