<svg width="24" height="25" viewBox="0 0 24 25" fill="none" xmlns="http://www.w3.org/2000/svg">
<g id="transfer 1" clip-path="url(#clip0_172_2138)">
<path id="Vector" d="M23.5641 7.40891L19.5356 11.4374C19.245 11.728 18.8642 11.8733 18.4834 11.8733C18.1025 11.8733 17.7217 11.728 17.4312 11.4374C16.8501 10.8563 16.8501 9.9142 17.4312 9.33309L18.9195 7.84476H3.31902C2.49723 7.84476 1.83102 7.17855 1.83102 6.35676C1.83102 5.53496 2.49723 4.86876 3.31902 4.86876H18.9195L17.4312 3.38043C16.8501 2.79932 16.8501 1.85718 17.4312 1.27607C18.0123 0.694963 18.9544 0.694963 19.5356 1.27607L23.5641 5.3046C24.1452 5.88567 24.1452 6.82785 23.5641 7.40891ZM20.059 17.6437H5.27225L6.76062 16.1554C7.34169 15.5743 7.34169 14.6321 6.76062 14.051C6.17947 13.4699 5.23738 13.4699 4.65622 14.051L0.627693 18.0796C0.0466285 18.6607 0.0466285 19.6028 0.627693 20.1839L4.65622 24.2124C4.9468 24.503 5.32759 24.6483 5.70842 24.6483C6.08926 24.6483 6.47005 24.503 6.76062 24.2124C7.34169 23.6313 7.34169 22.6892 6.76062 22.1081L5.27225 20.6198H20.059C20.8808 20.6198 21.547 19.9535 21.547 19.1318C21.547 18.31 20.8808 17.6437 20.059 17.6437Z" fill="#E67F1E"/>
</g>
<defs>
<clipPath id="clip0_172_2138">
<rect width="23.808" height="23.808" fill="white" transform="translate(0.191895 0.839996)"/>
</clipPath>
</defs>
</svg>
